<?xml version="1.0" encoding="UTF-8"?>
<!DOCTYPE svg PUBLIC "-//W3C//DTD SVG 1.1//EN" "http://www.w3.org/Graphics/SVG/1.1/DTD/svg11.dtd">
<svg xmlns="http://www.w3.org/2000/svg" version="1.1" width="1366px" height="768px" style="shape-rendering:geometricPrecision; text-rendering:geometricPrecision; image-rendering:optimizeQuality; fill-rule:evenodd; clip-rule:evenodd" xmlns:xlink="http://www.w3.org/1999/xlink">
<g><path style="opacity:0.234" fill="#fbfff9" d="M 921.5,10.5 C 926.391,10.5319 931.057,11.1985 935.5,12.5C 930.586,12.6382 925.919,11.9715 921.5,10.5 Z"/></g>
<g><path style="opacity:0.988" fill="#f3fde9" d="M 921.5,10.5 C 925.919,11.9715 930.586,12.6382 935.5,12.5C 937.167,12.5 938.833,12.5 940.5,12.5C 940.5,12.8333 940.5,13.1667 940.5,13.5C 938.833,13.5 937.167,13.5 935.5,13.5C 920.463,12.5096 905.463,12.5096 890.5,13.5C 882.882,14.4661 875.216,15.1328 867.5,15.5C 870.641,14.6787 873.975,14.1787 877.5,14C 878.056,13.6174 878.389,13.1174 878.5,12.5C 881.305,11.6805 884.305,11.1805 887.5,11C 898.828,10.5001 910.162,10.3335 921.5,10.5 Z"/></g>
<g><path style="opacity:0.997" fill="#ebfddd" d="M 890.5,13.5 C 887.466,15.0177 884.133,15.8511 880.5,16C 875.177,16.4994 869.844,16.666 864.5,16.5C 864.5,17.5 864.5,18.5 864.5,19.5C 861.326,19.6644 858.493,20.6644 856,22.5C 852.929,21.8619 849.763,21.8619 846.5,22.5C 851.643,20.8648 856.977,19.3648 862.5,18C 863.056,17.6174 863.389,17.1174 863.5,16.5C 864.568,15.5655 865.901,15.2322 867.5,15.5C 875.216,15.1328 882.882,14.4661 890.5,13.5 Z"/></g>
<g><path style="opacity:1" fill="#ebfed9" d="M 935.5,13.5 C 935.881,14.9311 936.881,15.7645 938.5,16C 950.809,19.0046 963.142,21.5046 975.5,23.5C 978.053,24.887 980.386,26.7203 982.5,29C 985.353,30.4301 988.353,31.2634 991.5,31.5C 994.153,36.1477 998.153,38.8144 1003.5,39.5C 1004.17,40.1667 1004.83,40.8333 1005.5,41.5C 1005.32,44.3289 1006.66,45.9955 1009.5,46.5C 1010.83,50.8 1013.49,53.8 1017.5,55.5C 1017.45,59.1382 1019.11,61.1382 1022.5,61.5C 1022.64,65.0927 1023.31,68.5927 1024.5,72C 1023.03,87.8664 1023.19,103.7 1025,119.5C 1025.17,118.167 1025.33,116.833 1025.5,115.5C 1025.17,105.474 1024.84,95.4742 1024.5,85.5C 1025.83,83.6887 1026.83,81.6887 1027.5,79.5C 1029,81.7857 1029.33,84.119 1028.5,86.5C 1029.8,89.6999 1030.47,93.0333 1030.5,96.5C 1029.8,101.813 1029.47,107.146 1029.5,112.5C 1029.5,114.167 1029.5,115.833 1029.5,117.5C 1028.88,117.611 1028.38,117.944 1028,118.5C 1027.5,121.482 1027.34,124.482 1027.5,127.5C 1025.55,132.573 1024.21,137.906 1023.5,143.5C 1023.5,144.833 1023.5,146.167 1023.5,147.5C 1022.38,151.295 1021.72,155.295 1021.5,159.5C 1018.54,177.398 1021.04,194.732 1029,211.5C 1029.76,213.063 1030.93,214.063 1032.5,214.5C 1033.68,218.582 1036.01,221.582 1039.5,223.5C 1039.5,224.167 1039.5,224.833 1039.5,225.5C 1041.03,229.698 1043.69,233.032 1047.5,235.5C 1047.53,238.852 1048.86,241.518 1051.5,243.5C 1052.12,246.398 1053.28,249.065 1055,251.5C 1056.37,253.041 1057.87,254.375 1059.5,255.5C 1059.35,256.552 1059.52,257.552 1060,258.5C 1064.03,260.556 1066.03,263.89 1066,268.5C 1066.33,268.167 1066.67,267.833 1067,267.5C 1069.34,268.73 1071.51,270.063 1073.5,271.5C 1075.07,274.582 1077.24,277.249 1080,279.5C 1080.06,284.666 1082.56,287.333 1087.5,287.5C 1087.34,288.873 1087.51,290.207 1088,291.5C 1091.07,295.881 1094.07,300.214 1097,304.5C 1097.66,306.813 1098.16,309.146 1098.5,311.5C 1102.96,319.263 1106.63,327.263 1109.5,335.5C 1110.59,338.653 1111.92,341.653 1113.5,344.5C 1114.57,354.629 1116.24,364.629 1118.5,374.5C 1118.5,388.5 1118.5,402.5 1118.5,416.5C 1116.61,420.634 1114.94,424.967 1113.5,429.5C 1114.38,435.227 1113.88,440.894 1112,446.5C 1111.33,445.833 1110.67,445.167 1110,444.5C 1109.4,440.117 1108.56,435.784 1107.5,431.5C 1106.91,431.709 1106.41,432.043 1106,432.5C 1105.44,437.687 1105.94,442.687 1107.5,447.5C 1108.83,447.5 1110.17,447.5 1111.5,447.5C 1111.5,448.5 1111.5,449.5 1111.5,450.5C 1109.07,457.398 1106.57,464.398 1104,471.5C 1103.5,474.146 1103.34,476.813 1103.5,479.5C 1100.9,482.121 1098.57,485.121 1096.5,488.5C 1096.84,490.655 1096.84,492.989 1096.5,495.5C 1096.17,495.5 1095.83,495.5 1095.5,495.5C 1093.95,498.24 1092.11,500.907 1090,503.5C 1089.63,507.574 1088.46,511.241 1086.5,514.5C 1083.38,517.682 1081.05,521.348 1079.5,525.5C 1078.21,526.29 1077.04,527.29 1076,528.5C 1075.67,528.167 1075.33,527.833 1075,527.5C 1073.9,533.102 1070.73,537.102 1065.5,539.5C 1064.07,541.297 1064.4,542.63 1066.5,543.5C 1065.23,546.755 1063.57,549.755 1061.5,552.5C 1058.73,551.94 1056.89,550.273 1056,547.5C 1054.27,550.759 1054.11,554.092 1055.5,557.5C 1050.84,558.162 1048.17,560.829 1047.5,565.5C 1045.42,566.959 1043.25,568.292 1041,569.5C 1040.51,571.134 1040.34,572.801 1040.5,574.5C 1039.83,574.5 1039.5,574.833 1039.5,575.5C 1039.5,575.833 1039.5,576.167 1039.5,576.5C 1036.99,577.921 1034.66,579.588 1032.5,581.5C 1030.36,583.074 1028.02,584.408 1025.5,585.5C 1024.05,586.85 1023.38,588.516 1023.5,590.5C 1023.5,591.5 1023.5,592.5 1023.5,593.5C 1023.5,594.167 1023.17,594.5 1022.5,594.5C 1021.17,594.5 1019.83,594.5 1018.5,594.5C 1018.5,595.5 1018.5,596.5 1018.5,597.5C 1016.31,597.704 1014.31,598.37 1012.5,599.5C 1009.34,600.979 1007.34,603.312 1006.5,606.5C 1004.8,606.34 1003.13,606.506 1001.5,607C 998.601,609.729 995.934,612.562 993.5,615.5C 992.194,616.467 991.527,617.801 991.5,619.5C 989.436,619.687 987.436,620.187 985.5,621C 973.496,629.892 961.496,638.392 949.5,646.5C 945.763,646.929 942.43,648.262 939.5,650.5C 933.823,652.399 928.156,654.232 922.5,656C 922.957,656.414 923.291,656.914 923.5,657.5C 921.61,659.578 919.276,660.911 916.5,661.5C 915.571,662.689 915.238,664.022 915.5,665.5C 913.322,664.796 911.322,664.463 909.5,664.5C 906.715,665.614 905.048,667.614 904.5,670.5C 904.631,671.376 904.298,672.043 903.5,672.5C 901.115,673.661 898.781,674.661 896.5,675.5C 895.778,676.551 894.778,677.218 893.5,677.5C 891.396,677.201 889.396,677.534 887.5,678.5C 884.487,681.974 881.153,682.641 877.5,680.5C 874.146,683.854 870.812,687.188 867.5,690.5C 865.447,690.402 863.78,691.069 862.5,692.5C 858.712,692.309 855.712,693.642 853.5,696.5C 851.128,697.723 848.628,698.723 846,699.5C 845.667,699.167 845.333,698.833 845,698.5C 844.535,699.931 843.701,701.097 842.5,702C 828.966,707.936 815.633,714.103 802.5,720.5C 800.287,721.605 798.12,721.605 796,720.5C 790.068,725.366 783.235,728.199 775.5,729C 768.126,733.68 760.126,736.847 751.5,738.5C 751.5,739.5 751.5,740.5 751.5,741.5C 742.594,741.913 733.928,743.579 725.5,746.5C 724.914,746.291 724.414,745.957 724,745.5C 722.442,747.359 720.609,748.859 718.5,750C 713.5,750.333 708.5,750.667 703.5,751C 701.389,751.845 699.389,752.678 697.5,753.5C 682.62,753.429 667.62,753.429 652.5,753.5C 651.833,753.5 651.167,753.5 650.5,753.5C 649.192,752.768 647.858,751.934 646.5,751C 641.511,750.501 636.511,750.334 631.5,750.5C 631.5,749.5 631.5,748.5 631.5,747.5C 625.343,746.794 619.343,745.46 613.5,743.5C 608.68,741.691 604.346,739.024 600.5,735.5C 598.051,731.218 594.384,728.718 589.5,728C 586.694,724.772 583.694,721.772 580.5,719C 579.207,718.51 577.873,718.343 576.5,718.5C 576.657,717.127 576.49,715.793 576,714.5C 573.027,711.527 570.027,708.527 567,705.5C 566.257,703.559 566.424,701.726 567.5,700C 565.479,697.606 563.146,696.773 560.5,697.5C 559.778,696.449 558.778,695.782 557.5,695.5C 557.5,694.833 557.5,694.167 557.5,693.5C 555.402,687.063 552.402,681.063 548.5,675.5C 547.272,673.824 545.939,673.491 544.5,674.5C 544.5,673.833 544.167,673.5 543.5,673.5C 543.672,672.508 543.338,671.842 542.5,671.5C 542.5,671.167 542.5,670.833 542.5,670.5C 542.611,669.883 542.944,669.383 543.5,669C 541.947,666.345 540.78,663.512 540,660.5C 539.667,660.833 539.333,661.167 539,661.5C 536.73,656.246 534.064,651.246 531,646.5C 529.798,644.323 529.298,641.989 529.5,639.5C 528.167,639.5 526.833,639.5 525.5,639.5C 525.851,636.188 524.518,633.855 521.5,632.5C 520.625,630.432 519.459,628.432 518,626.5C 516.736,624.393 514.903,623.393 512.5,623.5C 512.5,623.167 512.5,622.833 512.5,622.5C 512.662,620.473 512.495,618.473 512,616.5C 507.319,612.473 504.152,607.473 502.5,601.5C 495.055,597.88 489.055,592.713 484.5,586C 481.754,584.25 478.754,583.25 475.5,583C 474.5,581.333 473.167,580 471.5,579C 458.067,575.783 444.734,572.45 431.5,569C 403.019,567.023 374.519,566.523 346,567.5C 340.5,567 335,566.5 329.5,566C 328.24,564.887 327.073,564.72 326,565.5C 325.676,563.431 324.842,563.098 323.5,564.5C 319.605,562.248 320.105,560.915 325,560.5C 333.856,561.043 342.69,561.876 351.5,563C 395.485,563.165 395.485,562.332 351.5,560.5C 351.192,559.692 350.692,559.025 350,558.5C 342.782,559.584 336.115,559.584 330,558.5C 325.692,559.031 321.526,560.031 317.5,561.5C 313.365,559.622 309.032,558.455 304.5,558C 303.111,555.812 301.111,554.646 298.5,554.5C 295.931,551.272 292.598,549.272 288.5,548.5C 287.03,545.682 286.03,542.682 285.5,539.5C 280.924,538.759 278.09,536.092 277,531.5C 275.89,529.963 274.39,529.297 272.5,529.5C 270.375,524.414 268.709,518.747 267.5,512.5C 266.583,511.873 265.583,511.539 264.5,511.5C 264.314,504.119 264.814,496.786 266,489.5C 266.667,488.167 267.333,488.167 268,489.5C 269.495,487.89 269.661,486.224 268.5,484.5C 269.288,480.426 270.288,476.426 271.5,472.5C 271.7,469.37 272.366,466.37 273.5,463.5C 274.376,463.631 275.043,463.298 275.5,462.5C 276.809,459.7 278.309,457.033 280,454.5C 280.645,447.287 282.145,440.287 284.5,433.5C 283.583,430.242 283.249,426.909 283.5,423.5C 285.076,407.54 284.076,391.874 280.5,376.5C 280.5,375.5 280.5,374.5 280.5,373.5C 280.133,368.135 279.467,362.802 278.5,357.5C 276.775,354.072 275.608,350.405 275,346.5C 274.623,345.058 273.79,344.058 272.5,343.5C 272.5,342.167 272.5,340.833 272.5,339.5C 272.665,335.818 272.499,332.152 272,328.5C 269.289,324.449 268.456,320.116 269.5,315.5C 268.177,312.533 266.51,309.866 264.5,307.5C 262.866,298.54 261.2,289.207 259.5,279.5C 258.5,279.5 257.5,279.5 256.5,279.5C 256.768,277.901 256.434,276.568 255.5,275.5C 256.603,267.839 255.103,260.839 251,254.5C 250.503,252.19 250.337,249.857 250.5,247.5C 250.604,244.735 250.771,241.735 251,238.5C 251.414,238.957 251.914,239.291 252.5,239.5C 253.249,235.001 253.916,230.501 254.5,226C 254.23,219.448 253.23,213.282 251.5,207.5C 252.197,196.568 254.03,185.901 257,175.5C 261.38,167.853 264.88,159.853 267.5,151.5C 271.841,151.15 273.508,148.817 272.5,144.5C 273.873,144.657 275.207,144.49 276.5,144C 278.911,139.92 282.244,136.92 286.5,135C 288.229,133.211 288.896,131.044 288.5,128.5C 289.791,128.737 290.791,128.404 291.5,127.5C 291.833,127.5 292.167,127.5 292.5,127.5C 292.435,127.938 292.601,128.272 293,128.5C 294.883,125.976 297.383,124.642 300.5,124.5C 300.351,123.448 300.517,122.448 301,121.5C 302.57,122.358 304.237,123.025 306,123.5C 310.3,119.19 315.134,115.69 320.5,113C 325.216,113.043 329.549,111.876 333.5,109.5C 334.914,110.624 336.414,111.624 338,112.5C 341.816,111.861 345.983,111.361 350.5,111C 345.272,110.704 340.272,109.871 335.5,108.5C 335.5,108.167 335.5,107.833 335.5,107.5C 350.986,104.816 366.652,103.816 382.5,104.5C 382.804,105.15 383.137,105.817 383.5,106.5C 385.686,107.221 387.853,107.887 390,108.5C 390.333,108.167 390.667,107.833 391,107.5C 393.607,108.27 396.273,108.937 399,109.5C 403.124,108.75 407.291,108.75 411.5,109.5C 413.167,109.5 414.833,109.5 416.5,109.5C 417.058,110.79 418.058,111.623 419.5,112C 423.152,112.499 426.818,112.665 430.5,112.5C 430.33,113.822 430.663,114.989 431.5,116C 437.725,118.075 444.059,119.742 450.5,121C 455.944,123.868 461.611,126.035 467.5,127.5C 470.875,129.027 473.875,131.193 476.5,134C 478.433,134.783 479.933,134.283 481,132.5C 483.386,133.763 485.219,135.597 486.5,138C 491.581,139.251 496.581,140.751 501.5,142.5C 502.254,144.505 503.421,145.172 505,144.5C 505.494,146.134 505.66,147.801 505.5,149.5C 506.873,149.343 508.207,149.51 509.5,150C 508.112,150.889 508.278,151.389 510,151.5C 510.574,150.646 511.241,149.646 512,148.5C 516.741,150.251 521.574,152.584 526.5,155.5C 528.743,156.474 531.076,156.808 533.5,156.5C 533.5,156.833 533.5,157.167 533.5,157.5C 533.369,158.376 533.702,159.043 534.5,159.5C 539.587,159.751 543.753,161.751 547,165.5C 547.333,165.167 547.667,164.833 548,164.5C 554.945,166.626 561.778,169.126 568.5,172C 570.81,172.497 573.143,172.663 575.5,172.5C 577.735,172.205 579.735,172.539 581.5,173.5C 582.6,174.558 583.934,175.392 585.5,176C 601.167,176.667 616.833,176.667 632.5,176C 634.769,173.881 637.102,173.548 639.5,175C 641.5,175.667 643.5,175.667 645.5,175C 645.043,174.586 644.709,174.086 644.5,173.5C 645.274,172.289 646.107,172.289 647,173.5C 647.483,172.552 647.649,171.552 647.5,170.5C 657.123,168.296 665.123,163.629 671.5,156.5C 675.824,152.355 680.158,148.189 684.5,144C 685.448,143.517 686.448,143.351 687.5,143.5C 689.245,142.194 691.245,141.194 693.5,140.5C 694.312,138.055 695.312,135.722 696.5,133.5C 699.084,133.431 701.084,132.265 702.5,130C 702.167,129.667 701.833,129.333 701.5,129C 703.863,128.411 704.863,126.911 704.5,124.5C 705.552,124.649 706.552,124.483 707.5,124C 710.475,120.13 714.142,117.13 718.5,115C 718.043,114.586 717.709,114.086 717.5,113.5C 718.805,110.362 720.971,108.029 724,106.5C 724.333,106.833 724.667,107.167 725,107.5C 725.143,102.167 727.643,100.167 732.5,101.5C 733.015,103.225 733.682,104.892 734.5,106.5C 735.415,105.672 736.081,104.672 736.5,103.5C 735.12,101.232 734.287,98.8991 734,96.5C 735.167,94.6667 736.667,93.1667 738.5,92C 739.449,91.3828 740.282,91.5494 741,92.5C 741.44,90.1341 741.94,87.8008 742.5,85.5C 744.766,85.8588 746.599,85.1922 748,83.5C 748.333,83.8333 748.667,84.1667 749,84.5C 749.684,83.2161 749.517,82.0495 748.5,81C 750.282,80.1859 751.782,79.0192 753,77.5C 755.179,79.6372 757.679,79.9705 760.5,78.5C 760.192,77.6919 759.692,77.0253 759,76.5C 757.989,77.3366 756.822,77.67 755.5,77.5C 755.351,76.448 755.517,75.448 756,74.5C 756.333,74.8333 756.667,75.1667 757,75.5C 757.875,72.7854 759.708,71.4521 762.5,71.5C 762.433,70.0413 762.766,68.7079 763.5,67.5C 765.851,64.8165 768.517,62.4832 771.5,60.5C 772.386,59.675 772.719,58.675 772.5,57.5C 774.292,57.634 775.958,57.3007 777.5,56.5C 779.359,56.5391 780.692,55.7058 781.5,54C 783.5,53.6667 785.5,53.3333 787.5,53C 789.833,50.3333 792.167,47.6667 794.5,45C 797.708,44.8821 800.374,43.7154 802.5,41.5C 803.965,42.6087 804.965,42.1087 805.5,40C 808.64,38.2843 811.973,36.951 815.5,36C 816.337,34.9887 816.67,33.8221 816.5,32.5C 821.14,33.264 825.14,32.0974 828.5,29C 833.876,28.7478 838.542,26.9144 842.5,23.5C 843.568,22.5655 844.901,22.2322 846.5,22.5C 849.763,21.8619 852.929,21.8619 856,22.5C 858.493,20.6644 861.326,19.6644 864.5,19.5C 864.5,18.5 864.5,17.5 864.5,16.5C 869.844,16.666 875.177,16.4994 880.5,16C 884.133,15.8511 887.466,15.0177 890.5,13.5C 905.463,12.5096 920.463,12.5096 935.5,13.5 Z"/></g>
<g><path style="opacity:1" fill="#eefde0" d="M 935.5,13.5 C 937.167,13.5 938.833,13.5 940.5,13.5C 944.596,15.2125 948.93,15.8792 953.5,15.5C 955.565,15.5172 957.565,15.8505 959.5,16.5C 959.5,17.1667 959.5,17.8333 959.5,18.5C 965.173,18.9992 970.507,20.6658 975.5,23.5C 963.142,21.5046 950.809,19.0046 938.5,16C 936.881,15.7645 935.881,14.9311 935.5,13.5 Z"/></g>
<g><path style="opacity:0.165" fill="#fafdf3" d="M 940.5,13.5 C 940.5,13.1667 940.5,12.8333 940.5,12.5C 945.035,13.1368 949.368,14.1368 953.5,15.5C 948.93,15.8792 944.596,15.2125 940.5,13.5 Z"/></g>
<g><path style="opacity:0.995" fill="#f0fde6" d="M 863.5,16.5 C 863.389,17.1174 863.056,17.6174 862.5,18C 856.977,19.3648 851.643,20.8648 846.5,22.5C 844.901,22.2322 843.568,22.5655 842.5,23.5C 838.861,24.6274 835.194,25.6274 831.5,26.5C 831.5,25.8333 831.5,25.1667 831.5,24.5C 834.285,22.9049 837.285,21.9049 840.5,21.5C 848.262,20.152 855.929,18.4854 863.5,16.5 Z"/></g>
<g><path style="opacity:0.524" fill="#f9fdf6" d="M 959.5,16.5 C 961.698,16.8751 963.698,17.5418 965.5,18.5C 963.5,18.5 961.5,18.5 959.5,18.5C 959.5,17.8333 959.5,17.1667 959.5,16.5 Z"/></g>
<g><path style="opacity:0.442" fill="#f8fef1" d="M 878.5,12.5 C 878.389,13.1174 878.056,13.6174 877.5,14C 873.975,14.1787 870.641,14.6787 867.5,15.5C 865.901,15.2322 864.568,15.5655 863.5,16.5C 855.929,18.4854 848.262,20.152 840.5,21.5C 852.62,16.638 865.286,13.638 878.5,12.5 Z"/></g>
<g><path style="opacity:0.573" fill="#f7feee" d="M 959.5,18.5 C 961.5,18.5 963.5,18.5 965.5,18.5C 972.003,19.7594 978.003,22.0927 983.5,25.5C 980.779,25.0372 978.112,24.3705 975.5,23.5C 970.507,20.6658 965.173,18.9992 959.5,18.5 Z"/></g>
<g><path style="opacity:0.694" fill="#f6feef" d="M 831.5,24.5 C 831.5,25.1667 831.5,25.8333 831.5,26.5C 828.727,27.6572 825.727,28.3239 822.5,28.5C 825.256,26.7962 828.256,25.4629 831.5,24.5 Z"/></g>
<g><path style="opacity:0.561" fill="#f7fef1" d="M 983.5,25.5 C 986.754,25.7936 989.421,27.127 991.5,29.5C 988.279,29.1039 985.612,27.7705 983.5,25.5 Z"/></g>
<g><path style="opacity:1" fill="#eefce0" d="M 975.5,23.5 C 978.112,24.3705 980.779,25.0372 983.5,25.5C 985.612,27.7705 988.279,29.1039 991.5,29.5C 991.5,30.1667 991.5,30.8333 991.5,31.5C 988.353,31.2634 985.353,30.4301 982.5,29C 980.386,26.7203 978.053,24.887 975.5,23.5 Z"/></g>
<g><path style="opacity:0.831" fill="#f8fef0" d="M 822.5,28.5 C 820.91,30.821 818.577,31.821 815.5,31.5C 817.509,29.9348 819.843,28.9348 822.5,28.5 Z"/></g>
<g><path style="opacity:0.388" fill="#f9fdf7" d="M 991.5,29.5 C 993.153,29.6596 994.486,30.3263 995.5,31.5C 994.167,31.5 992.833,31.5 991.5,31.5C 991.5,30.8333 991.5,30.1667 991.5,29.5 Z"/></g>
<g><path style="opacity:0.359" fill="#f7fef3" d="M 815.5,31.5 C 813.518,34.1367 810.852,35.47 807.5,35.5C 809.849,33.659 812.515,32.3257 815.5,31.5 Z"/></g>
<g><path style="opacity:1" fill="#eefce0" d="M 991.5,31.5 C 992.833,31.5 994.167,31.5 995.5,31.5C 996.167,31.8333 996.833,32.1667 997.5,32.5C 997.281,33.675 997.614,34.675 998.5,35.5C 1000.79,36.1329 1002.45,37.4662 1003.5,39.5C 998.153,38.8144 994.153,36.1477 991.5,31.5 Z"/></g>
<g><path style="opacity:0.871" fill="#f6fef0" d="M 807.5,35.5 C 806.7,37.7409 805.034,38.7409 802.5,38.5C 803.659,36.7497 805.326,35.7497 807.5,35.5 Z"/></g>
<g><path style="opacity:0.788" fill="#f6fdf2" d="M 997.5,32.5 C 1000.81,34.4821 1003.81,36.8154 1006.5,39.5C 1005.5,39.5 1004.5,39.5 1003.5,39.5C 1002.45,37.4662 1000.79,36.1329 998.5,35.5C 997.614,34.675 997.281,33.675 997.5,32.5 Z"/></g>
<g><path style="opacity:1" fill="#edfddf" d="M 842.5,23.5 C 838.542,26.9144 833.876,28.7478 828.5,29C 825.14,32.0974 821.14,33.264 816.5,32.5C 816.67,33.8221 816.337,34.9887 815.5,36C 811.973,36.951 808.64,38.2843 805.5,40C 804.965,42.1087 803.965,42.6087 802.5,41.5C 800.374,43.7154 797.708,44.8821 794.5,45C 792.167,47.6667 789.833,50.3333 787.5,53C 785.5,53.3333 783.5,53.6667 781.5,54C 780.692,55.7058 779.359,56.5391 777.5,56.5C 777.937,54.9256 778.937,53.7589 780.5,53C 784.776,53.0915 787.776,51.2581 789.5,47.5C 791.167,46.5 792.5,45.1667 793.5,43.5C 797.715,43.9393 800.715,42.2726 802.5,38.5C 805.034,38.7409 806.7,37.7409 807.5,35.5C 810.852,35.47 813.518,34.1367 815.5,31.5C 818.577,31.821 820.91,30.821 822.5,28.5C 825.727,28.3239 828.727,27.6572 831.5,26.5C 835.194,25.6274 838.861,24.6274 842.5,23.5 Z"/></g>
<g><path style="opacity:0.992" fill="#f4fdee" d="M 802.5,38.5 C 800.715,42.2726 797.715,43.9393 793.5,43.5C 796.008,41.0764 799.008,39.4097 802.5,38.5 Z"/></g>
<g><path style="opacity:1" fill="#ecfddc" d="M 1005.5,41.5 C 1010.43,45.3725 1014.43,50.0392 1017.5,55.5C 1013.49,53.8 1010.83,50.8 1009.5,46.5C 1006.66,45.9955 1005.32,44.3289 1005.5,41.5 Z"/></g>
<g><path style="opacity:0.573" fill="#f5fef0" d="M 793.5,43.5 C 792.5,45.1667 791.167,46.5 789.5,47.5C 788.833,47.5 788.167,47.5 787.5,47.5C 789.147,45.6736 791.147,44.3403 793.5,43.5 Z"/></g>
<g><path style="opacity:0.971" fill="#f3fde7" d="M 787.5,47.5 C 788.167,47.5 788.833,47.5 789.5,47.5C 787.776,51.2581 784.776,53.0915 780.5,53C 778.937,53.7589 777.937,54.9256 777.5,56.5C 775.958,57.3007 774.292,57.634 772.5,57.5C 776.976,53.4254 781.976,50.0921 787.5,47.5 Z"/></g>
<g><path style="opacity:0.972" fill="#f2fde8" d="M 1003.5,39.5 C 1004.5,39.5 1005.5,39.5 1006.5,39.5C 1013.66,44.9865 1019.33,51.6532 1023.5,59.5C 1021.23,58.5589 1019.23,57.2255 1017.5,55.5C 1014.43,50.0392 1010.43,45.3725 1005.5,41.5C 1004.83,40.8333 1004.17,40.1667 1003.5,39.5 Z"/></g>
<g><path style="opacity:1" fill="#ecfddc" d="M 1017.5,55.5 C 1019.23,57.2255 1021.23,58.5589 1023.5,59.5C 1025.08,67.3294 1027.25,74.9961 1030,82.5C 1031.05,89.1276 1031.55,95.7943 1031.5,102.5C 1030.83,105.833 1030.17,109.167 1029.5,112.5C 1029.47,107.146 1029.8,101.813 1030.5,96.5C 1030.47,93.0333 1029.8,89.6999 1028.5,86.5C 1029.33,84.119 1029,81.7857 1027.5,79.5C 1026.83,81.6887 1025.83,83.6887 1024.5,85.5C 1024.84,95.4742 1025.17,105.474 1025.5,115.5C 1025.33,116.833 1025.17,118.167 1025,119.5C 1023.19,103.7 1023.03,87.8664 1024.5,72C 1023.31,68.5927 1022.64,65.0927 1022.5,61.5C 1019.11,61.1382 1017.45,59.1382 1017.5,55.5 Z"/></g>
<g><path style="opacity:0.745" fill="#f4fdea" d="M 772.5,57.5 C 772.719,58.675 772.386,59.675 771.5,60.5C 768.517,62.4832 765.851,64.8165 763.5,67.5C 757.539,69.1424 753.539,72.8091 751.5,78.5C 750.07,78.4208 748.736,78.7542 747.5,79.5C 746.511,82.1483 744.844,84.1483 742.5,85.5C 739.915,88.7523 736.582,90.7523 732.5,91.5C 740.303,83.8664 748.303,76.3664 756.5,69C 761.712,64.948 767.045,61.1146 772.5,57.5 Z"/></g>
<g><path style="opacity:1" fill="#ebfedd" d="M 763.5,67.5 C 762.766,68.7079 762.433,70.0413 762.5,71.5C 759.708,71.4521 757.875,72.7854 757,75.5C 756.667,75.1667 756.333,74.8333 756,74.5C 755.517,75.448 755.351,76.448 755.5,77.5C 756.822,77.67 757.989,77.3366 759,76.5C 759.692,77.0253 760.192,77.6919 760.5,78.5C 757.679,79.9705 755.179,79.6372 753,77.5C 751.782,79.0192 750.282,80.1859 748.5,81C 749.517,82.0495 749.684,83.2161 749,84.5C 748.667,84.1667 748.333,83.8333 748,83.5C 746.599,85.1922 744.766,85.8588 742.5,85.5C 744.844,84.1483 746.511,82.1483 747.5,79.5C 748.736,78.7542 750.07,78.4208 751.5,78.5C 753.539,72.8091 757.539,69.1424 763.5,67.5 Z"/></g>
<g><path style="opacity:0.515" fill="#f3fde9" d="M 1023.5,59.5 C 1027.18,64.5382 1029.51,70.2049 1030.5,76.5C 1031.44,82.6298 1032.1,88.7965 1032.5,95C 1032.5,97.6903 1032.16,100.19 1031.5,102.5C 1031.55,95.7943 1031.05,89.1276 1030,82.5C 1027.25,74.9961 1025.08,67.3294 1023.5,59.5 Z"/></g>
<g><path style="opacity:0.147" fill="#fafef5" d="M 1030.5,76.5 C 1032.86,82.4859 1033.86,88.8193 1033.5,95.5C 1033.56,101.726 1032.9,107.726 1031.5,113.5C 1031.5,109.833 1031.5,106.167 1031.5,102.5C 1032.16,100.19 1032.5,97.6903 1032.5,95C 1032.1,88.7965 1031.44,82.6298 1030.5,76.5 Z"/></g>
<g><path style="opacity:0.953" fill="#effce4" d="M 1031.5,102.5 C 1031.5,106.167 1031.5,109.833 1031.5,113.5C 1030.83,114.833 1030.17,116.167 1029.5,117.5C 1029.5,115.833 1029.5,114.167 1029.5,112.5C 1030.17,109.167 1030.83,105.833 1031.5,102.5 Z"/></g>
<g><path style="opacity:0.224" fill="#fbfef7" d="M 347.5,103.5 C 344.493,105.175 341.16,105.841 337.5,105.5C 340.627,104.419 343.96,103.753 347.5,103.5 Z"/></g>
<g><path style="opacity:0.69" fill="#f8fef3" d="M 351.5,103.5 C 363.993,102.34 376.66,102.173 389.5,103C 394.706,103.437 399.706,104.27 404.5,105.5C 400.5,105.5 396.5,105.5 392.5,105.5C 389.713,104.523 386.713,104.19 383.5,104.5C 373.013,103.506 362.346,103.172 351.5,103.5 Z"/></g>
<g><path style="opacity:0.937" fill="#f1fde5" d="M 347.5,103.5 C 348.833,103.5 350.167,103.5 351.5,103.5C 362.346,103.172 373.013,103.506 383.5,104.5C 383.167,104.5 382.833,104.5 382.5,104.5C 366.652,103.816 350.986,104.816 335.5,107.5C 335.5,106.833 335.5,106.167 335.5,105.5C 336.167,105.5 336.833,105.5 337.5,105.5C 341.16,105.841 344.493,105.175 347.5,103.5 Z"/></g>
<g><path style="opacity:1" fill="#ecfdde" d="M 382.5,104.5 C 382.833,104.5 383.167,104.5 383.5,104.5C 386.713,104.19 389.713,104.523 392.5,105.5C 398.927,106.319 405.261,107.652 411.5,109.5C 407.291,108.75 403.124,108.75 399,109.5C 396.273,108.937 393.607,108.27 391,107.5C 390.667,107.833 390.333,108.167 390,108.5C 387.853,107.887 385.686,107.221 383.5,106.5C 383.137,105.817 382.804,105.15 382.5,104.5 Z"/></g>
<g><path style="opacity:0.769" fill="#f9fdf2" d="M 335.5,105.5 C 335.5,106.167 335.5,106.833 335.5,107.5C 333.167,107.5 330.833,107.5 328.5,107.5C 330.657,106.593 332.99,105.927 335.5,105.5 Z"/></g>
<g><path style="opacity:0.979" fill="#f1fde6" d="M 392.5,105.5 C 396.5,105.5 400.5,105.5 404.5,105.5C 405.5,105.5 406.5,105.5 407.5,105.5C 409.635,107.369 412.302,108.036 415.5,107.5C 416.5,107.5 417.5,107.5 418.5,107.5C 418.833,108.167 419.167,108.833 419.5,109.5C 418.5,109.5 417.5,109.5 416.5,109.5C 414.833,109.5 413.167,109.5 411.5,109.5C 405.261,107.652 398.927,106.319 392.5,105.5 Z"/></g>
<g><path style="opacity:0.567" fill="#f8fff6" d="M 407.5,105.5 C 410.33,105.963 412.997,106.629 415.5,107.5C 412.302,108.036 409.635,107.369 407.5,105.5 Z"/></g>
<g><path style="opacity:0.843" fill="#f4feec" d="M 732.5,91.5 C 731.155,93.6968 729.989,96.0302 729,98.5C 721.939,103.562 716.273,109.895 712,117.5C 711.667,117.167 711.333,116.833 711,116.5C 708.894,119.118 706.394,121.118 703.5,122.5C 705.529,120.142 707.529,117.808 709.5,115.5C 711.5,115.5 712.5,114.5 712.5,112.5C 718.464,104.868 725.131,97.8681 732.5,91.5 Z"/></g>
<g><path style="opacity:0.978" fill="#effce4" d="M 326.5,107.5 C 327.167,107.5 327.833,107.5 328.5,107.5C 330.833,107.5 333.167,107.5 335.5,107.5C 335.5,107.833 335.5,108.167 335.5,108.5C 330.671,109.953 325.671,110.953 320.5,111.5C 322.918,110.707 324.918,109.374 326.5,107.5 Z"/></g>
<g><path style="opacity:1" fill="#ebfddd" d="M 742.5,85.5 C 741.94,87.8008 741.44,90.1341 741,92.5C 740.282,91.5494 739.449,91.3828 738.5,92C 736.667,93.1667 735.167,94.6667 734,96.5C 734.287,98.8991 735.12,101.232 736.5,103.5C 736.081,104.672 735.415,105.672 734.5,106.5C 733.682,104.892 733.015,103.225 732.5,101.5C 727.643,100.167 725.143,102.167 725,107.5C 724.667,107.167 724.333,106.833 724,106.5C 720.971,108.029 718.805,110.362 717.5,113.5C 717.709,114.086 718.043,114.586 718.5,115C 714.142,117.13 710.475,120.13 707.5,124C 706.552,124.483 705.552,124.649 704.5,124.5C 704.863,126.911 703.863,128.411 701.5,129C 701.833,129.333 702.167,129.667 702.5,130C 701.084,132.265 699.084,133.431 696.5,133.5C 697.925,132.078 698.925,130.411 699.5,128.5C 700.209,127.596 701.209,127.263 702.5,127.5C 702.629,125.784 702.962,124.117 703.5,122.5C 706.394,121.118 708.894,119.118 711,116.5C 711.333,116.833 711.667,117.167 712,117.5C 716.273,109.895 721.939,103.562 729,98.5C 729.989,96.0302 731.155,93.6968 732.5,91.5C 736.582,90.7523 739.915,88.7523 742.5,85.5 Z"/></g>
<g><path style="opacity:0.533" fill="#fafef2" d="M 326.5,107.5 C 324.918,109.374 322.918,110.707 320.5,111.5C 319.167,111.5 317.833,111.5 316.5,111.5C 319.683,109.99 323.016,108.657 326.5,107.5 Z"/></g>
<g><path style="opacity:0.806" fill="#f8fef2" d="M 418.5,107.5 C 423.073,108.388 427.406,109.721 431.5,111.5C 427.374,111.428 423.374,110.761 419.5,109.5C 419.167,108.833 418.833,108.167 418.5,107.5 Z"/></g>
<g><path style="opacity:0.598" fill="#f8fef1" d="M 431.5,112.5 C 431.5,112.167 431.5,111.833 431.5,111.5C 437.177,112.394 442.51,114.061 447.5,116.5C 442.005,115.749 436.672,114.415 431.5,112.5 Z"/></g>
<g><path style="opacity:1" fill="#ecfddd" d="M 416.5,109.5 C 417.5,109.5 418.5,109.5 419.5,109.5C 423.374,110.761 427.374,111.428 431.5,111.5C 431.5,111.833 431.5,112.167 431.5,112.5C 431.611,113.117 431.944,113.617 432.5,114C 438.753,116.26 445.087,118.093 451.5,119.5C 455.869,121.796 460.536,123.629 465.5,125C 466.381,125.708 467.047,126.542 467.5,127.5C 461.611,126.035 455.944,123.868 450.5,121C 444.059,119.742 437.725,118.075 431.5,116C 430.663,114.989 430.33,113.822 430.5,112.5C 426.818,112.665 423.152,112.499 419.5,112C 418.058,111.623 417.058,110.79 416.5,109.5 Z"/></g>
<g><path style="opacity:1" fill="#eefce4" d="M 431.5,112.5 C 436.672,114.415 442.005,115.749 447.5,116.5C 448.167,116.5 448.833,116.5 449.5,116.5C 449.782,117.778 450.449,118.778 451.5,119.5C 445.087,118.093 438.753,116.26 432.5,114C 431.944,113.617 431.611,113.117 431.5,112.5 Z"/></g>
<g><path style="opacity:0.365" fill="#fafff5" d="M 712.5,112.5 C 712.5,114.5 711.5,115.5 709.5,115.5C 710.167,114.167 711.167,113.167 712.5,112.5 Z"/></g>
<g><path style="opacity:1" fill="#ebfedd" d="M 335.5,108.5 C 340.272,109.871 345.272,110.704 350.5,111C 345.983,111.361 341.816,111.861 338,112.5C 336.414,111.624 334.914,110.624 333.5,109.5C 329.549,111.876 325.216,113.043 320.5,113C 315.134,115.69 310.3,119.19 306,123.5C 304.237,123.025 302.57,122.358 301,121.5C 300.517,122.448 300.351,123.448 300.5,124.5C 297.383,124.642 294.883,125.976 293,128.5C 292.601,128.272 292.435,127.938 292.5,127.5C 293.81,124.527 295.81,122.193 298.5,120.5C 302.562,119.641 306.562,118.474 310.5,117C 312.029,114.569 314.029,112.736 316.5,111.5C 317.833,111.5 319.167,111.5 320.5,111.5C 325.671,110.953 330.671,109.953 335.5,108.5 Z"/></g>
<g><path style="opacity:0.975" fill="#f4fdeb" d="M 316.5,111.5 C 314.029,112.736 312.029,114.569 310.5,117C 306.562,118.474 302.562,119.641 298.5,120.5C 303.903,116.465 309.903,113.465 316.5,111.5 Z"/></g>
<g><path style="opacity:0.78" fill="#f7fef0" d="M 449.5,116.5 C 452.739,117.462 455.739,118.795 458.5,120.5C 456.194,120.007 453.861,119.674 451.5,119.5C 450.449,118.778 449.782,117.778 449.5,116.5 Z"/></g>
<g><path style="opacity:0.11" fill="#f5fded" d="M 1031.5,113.5 C 1031.14,119.289 1030.14,124.955 1028.5,130.5C 1027.6,129.791 1027.26,128.791 1027.5,127.5C 1027.34,124.482 1027.5,121.482 1028,118.5C 1028.38,117.944 1028.88,117.611 1029.5,117.5C 1030.17,116.167 1030.83,114.833 1031.5,113.5 Z"/></g>
<g><path style="opacity:0.946" fill="#f4fdea" d="M 451.5,119.5 C 453.861,119.674 456.194,120.007 458.5,120.5C 465.03,122.101 471.03,124.767 476.5,128.5C 473.518,128.037 470.518,127.704 467.5,127.5C 467.047,126.542 466.381,125.708 465.5,125C 460.536,123.629 455.869,121.796 451.5,119.5 Z"/></g>
<g><path style="opacity:0.982" fill="#f5fdeb" d="M 298.5,120.5 C 295.81,122.193 293.81,124.527 292.5,127.5C 292.167,127.5 291.833,127.5 291.5,127.5C 290.167,127.5 288.833,127.5 287.5,127.5C 290.894,124.779 294.561,122.446 298.5,120.5 Z"/></g>
<g><path style="opacity:0.345" fill="#f8fef3" d="M 703.5,122.5 C 702.962,124.117 702.629,125.784 702.5,127.5C 701.209,127.263 700.209,127.596 699.5,128.5C 698.395,129.6 697.062,130.267 695.5,130.5C 697.833,127.5 700.5,124.833 703.5,122.5 Z"/></g>
<g><path style="opacity:0.573" fill="#f7fef1" d="M 478.5,128.5 C 480.368,129.263 482.035,130.263 483.5,131.5C 480.715,132.084 479.048,131.084 478.5,128.5 Z"/></g>
<g><path style="opacity:0.972" fill="#f0fce5" d="M 1027.5,127.5 C 1027.26,128.791 1027.6,129.791 1028.5,130.5C 1028.5,130.833 1028.5,131.167 1028.5,131.5C 1026.29,134.321 1025.29,137.655 1025.5,141.5C 1025.5,142.167 1025.5,142.833 1025.5,143.5C 1024.83,143.5 1024.17,143.5 1023.5,143.5C 1024.21,137.906 1025.55,132.573 1027.5,127.5 Z"/></g>
<g><path style="opacity:1" fill="#edfdde" d="M 287.5,127.5 C 288.833,127.5 290.167,127.5 291.5,127.5C 290.791,128.404 289.791,128.737 288.5,128.5C 288.896,131.044 288.229,133.211 286.5,135C 282.244,136.92 278.911,139.92 276.5,144C 275.207,144.49 273.873,144.657 272.5,144.5C 273.508,148.817 271.841,151.15 267.5,151.5C 269.238,149.079 270.571,146.412 271.5,143.5C 276.662,141.02 280.995,137.354 284.5,132.5C 286.69,131.626 287.69,129.959 287.5,127.5 Z"/></g>
<g><path style="opacity:0.475" fill="#f8fef2" d="M 287.5,127.5 C 287.69,129.959 286.69,131.626 284.5,132.5C 282.5,133.5 280.5,134.5 278.5,135.5C 281.271,132.608 284.271,129.942 287.5,127.5 Z"/></g>
<g><path style="opacity:0.975" fill="#f0fce5" d="M 284.5,132.5 C 280.995,137.354 276.662,141.02 271.5,143.5C 272.167,142.5 272.833,141.5 273.5,140.5C 276.167,139.833 277.833,138.167 278.5,135.5C 280.5,134.5 282.5,133.5 284.5,132.5 Z"/></g>
<g><path style="opacity:1" fill="#edfddf" d="M 467.5,127.5 C 470.518,127.704 473.518,128.037 476.5,128.5C 477.167,128.5 477.833,128.5 478.5,128.5C 479.048,131.084 480.715,132.084 483.5,131.5C 483.953,132.458 484.619,133.292 485.5,134C 488.353,135.43 491.353,136.263 494.5,136.5C 494.833,136.5 495.167,136.5 495.5,136.5C 495.5,137.5 495.5,138.5 495.5,139.5C 498.313,139.025 500.313,140.025 501.5,142.5C 496.581,140.751 491.581,139.251 486.5,138C 485.219,135.597 483.386,133.763 481,132.5C 479.933,134.283 478.433,134.783 476.5,134C 473.875,131.193 470.875,129.027 467.5,127.5 Z"/></g>
<g><path style="opacity:0.741" fill="#f6fef0" d="M 483.5,131.5 C 487.582,132.376 491.249,134.043 494.5,136.5C 491.353,136.263 488.353,135.43 485.5,134C 484.619,133.292 483.953,132.458 483.5,131.5 Z"/></g>
<g><path style="opacity:1" fill="#ecfcde" d="M 696.5,133.5 C 695.312,135.722 694.312,138.055 693.5,140.5C 691.245,141.194 689.245,142.194 687.5,143.5C 687.5,142.167 687.5,140.833 687.5,139.5C 690.5,137.5 693.5,135.5 696.5,133.5 Z"/></g>
<g><path style="opacity:0.82" fill="#f4fdea" d="M 699.5,128.5 C 698.925,130.411 697.925,132.078 696.5,133.5C 693.5,135.5 690.5,137.5 687.5,139.5C 690.167,136.5 692.833,133.5 695.5,130.5C 697.062,130.267 698.395,129.6 699.5,128.5 Z"/></g>
<g><path style="opacity:0.373" fill="#fafef2" d="M 1028.5,131.5 C 1027.79,135.025 1026.79,138.358 1025.5,141.5C 1025.29,137.655 1026.29,134.321 1028.5,131.5 Z"/></g>
<g><path style="opacity:0.431" fill="#fafff5" d="M 278.5,135.5 C 277.833,138.167 276.167,139.833 273.5,140.5C 274.833,138.5 276.5,136.833 278.5,135.5 Z"/></g>
<g><path style="opacity:0.984" fill="#f4fdeb" d="M 495.5,136.5 C 503.844,140.005 511.844,144.005 519.5,148.5C 514.746,148.819 510.746,147.319 507.5,144C 505.482,143.495 503.482,142.995 501.5,142.5C 500.313,140.025 498.313,139.025 495.5,139.5C 495.5,138.5 495.5,137.5 495.5,136.5 Z"/></g>
<g><path style="opacity:0.39" fill="#f9fdf4" d="M 1023.5,143.5 C 1024.17,143.5 1024.83,143.5 1025.5,143.5C 1025.14,146.689 1024.47,149.689 1023.5,152.5C 1023.5,150.833 1023.5,149.167 1023.5,147.5C 1023.5,146.167 1023.5,144.833 1023.5,143.5 Z"/></g>
<g><path style="opacity:0.843" fill="#f8fef1" d="M 271.5,143.5 C 270.571,146.412 269.238,149.079 267.5,151.5C 266.061,153.36 264.395,155.027 262.5,156.5C 264.763,151.635 267.763,147.302 271.5,143.5 Z"/></g>
<g><path style="opacity:0.443" fill="#f9fef3" d="M 519.5,148.5 C 525.125,150.316 530.459,152.649 535.5,155.5C 534.833,155.5 534.167,155.5 533.5,155.5C 531.94,155.481 530.44,155.148 529,154.5C 525.685,152.582 522.519,150.582 519.5,148.5 Z"/></g>
<g><path style="opacity:0.671" fill="#f7fef1" d="M 676.5,149.5 C 675.415,151.587 673.749,152.92 671.5,153.5C 672.585,151.413 674.251,150.08 676.5,149.5 Z"/></g>
<g><path style="opacity:1" fill="#edfddf" d="M 501.5,142.5 C 503.482,142.995 505.482,143.495 507.5,144C 510.746,147.319 514.746,148.819 519.5,148.5C 522.519,150.582 525.685,152.582 529,154.5C 530.44,155.148 531.94,155.481 533.5,155.5C 533.5,155.833 533.5,156.167 533.5,156.5C 531.076,156.808 528.743,156.474 526.5,155.5C 521.574,152.584 516.741,150.251 512,148.5C 511.241,149.646 510.574,150.646 510,151.5C 508.278,151.389 508.112,150.889 509.5,150C 508.207,149.51 506.873,149.343 505.5,149.5C 505.66,147.801 505.494,146.134 505,144.5C 503.421,145.172 502.254,144.505 501.5,142.5 Z"/></g>
<g><path style="opacity:0.225" fill="#f2fee7" d="M 1023.5,147.5 C 1023.5,149.167 1023.5,150.833 1023.5,152.5C 1023.5,154.167 1023.5,155.833 1023.5,157.5C 1022.83,158.167 1022.17,158.833 1021.5,159.5C 1021.72,155.295 1022.38,151.295 1023.5,147.5 Z"/></g>
<g><path style="opacity:0.976" fill="#f3fdeb" d="M 533.5,155.5 C 534.167,155.5 534.833,155.5 535.5,155.5C 539.797,156.655 543.797,158.321 547.5,160.5C 546.5,160.5 545.5,160.5 544.5,160.5C 540.669,159.957 537.002,158.957 533.5,157.5C 533.5,157.167 533.5,156.833 533.5,156.5C 533.5,156.167 533.5,155.833 533.5,155.5 Z"/></g>
<g><path style="opacity:0.922" fill="#f4fdea" d="M 687.5,139.5 C 687.5,140.833 687.5,142.167 687.5,143.5C 686.448,143.351 685.448,143.517 684.5,144C 680.158,148.189 675.824,152.355 671.5,156.5C 664.712,161.401 657.379,165.567 649.5,169C 644.878,170.156 640.211,170.99 635.5,171.5C 648.287,167.106 660.287,161.106 671.5,153.5C 673.749,152.92 675.415,151.587 676.5,149.5C 679.563,145.434 683.229,142.101 687.5,139.5 Z"/></g>
<g><path style="opacity:1" fill="#ebfddd" d="M 533.5,157.5 C 537.002,158.957 540.669,159.957 544.5,160.5C 546.7,162.64 549.367,164.14 552.5,165C 560.451,166.994 568.118,169.494 575.5,172.5C 573.143,172.663 570.81,172.497 568.5,172C 561.778,169.126 554.945,166.626 548,164.5C 547.667,164.833 547.333,165.167 547,165.5C 543.753,161.751 539.587,159.751 534.5,159.5C 533.702,159.043 533.369,158.376 533.5,157.5 Z"/></g>
<g><path style="opacity:0.376" fill="#f9fef4" d="M 1023.5,157.5 C 1022.18,168.936 1022.85,180.27 1025.5,191.5C 1023.53,187.993 1022.53,183.993 1022.5,179.5C 1021.67,172.859 1021.33,166.192 1021.5,159.5C 1022.17,158.833 1022.83,158.167 1023.5,157.5 Z"/></g>
<g><path style="opacity:0.4" fill="#f9fef1" d="M 547.5,160.5 C 551.537,161.065 555.203,162.399 558.5,164.5C 554.327,164.333 550.66,163 547.5,160.5 Z"/></g>
<g><path style="opacity:0.29" fill="#f6feed" d="M 262.5,156.5 C 262.567,158.401 262.233,160.234 261.5,162C 259.598,164.995 257.598,167.828 255.5,170.5C 257.087,165.368 259.421,160.702 262.5,156.5 Z"/></g>
<g><path style="opacity:0.999" fill="#effce4" d="M 544.5,160.5 C 545.5,160.5 546.5,160.5 547.5,160.5C 550.66,163 554.327,164.333 558.5,164.5C 560.965,164.767 563.299,165.434 565.5,166.5C 568.288,168.976 571.622,169.976 575.5,169.5C 579.802,171.557 584.469,172.557 589.5,172.5C 590.833,172.5 592.167,172.5 593.5,172.5C 595.156,174.06 597.156,175.06 599.5,175.5C 593.453,175.224 587.453,174.557 581.5,173.5C 579.735,172.539 577.735,172.205 575.5,172.5C 568.118,169.494 560.451,166.994 552.5,165C 549.367,164.14 546.7,162.64 544.5,160.5 Z"/></g>
<g><path style="opacity:0.676" fill="#f7fef2" d="M 565.5,166.5 C 569.048,167.13 572.381,168.13 575.5,169.5C 571.622,169.976 568.288,168.976 565.5,166.5 Z"/></g>
<g><path style="opacity:0.324" fill="#fbfef4" d="M 575.5,169.5 C 580.375,170.085 585.042,171.085 589.5,172.5C 584.469,172.557 579.802,171.557 575.5,169.5 Z"/></g>
<g><path style="opacity:0.537" fill="#f8fdf6" d="M 255.5,170.5 C 255.675,172.621 255.341,174.621 254.5,176.5C 253.833,176.5 253.167,176.5 252.5,176.5C 253.514,174.426 254.514,172.426 255.5,170.5 Z"/></g>
<g><path style="opacity:1" fill="#ecfddf" d="M 671.5,156.5 C 665.123,163.629 657.123,168.296 647.5,170.5C 647.649,171.552 647.483,172.552 647,173.5C 646.107,172.289 645.274,172.289 644.5,173.5C 644.709,174.086 645.043,174.586 645.5,175C 643.5,175.667 641.5,175.667 639.5,175C 637.102,173.548 634.769,173.881 632.5,176C 616.833,176.667 601.167,176.667 585.5,176C 583.934,175.392 582.6,174.558 581.5,173.5C 587.453,174.557 593.453,175.224 599.5,175.5C 607.507,175.666 615.507,175.5 623.5,175C 627.715,174.145 631.715,172.978 635.5,171.5C 640.211,170.99 644.878,170.156 649.5,169C 657.379,165.567 664.712,161.401 671.5,156.5 Z"/></g>
<g><path style="opacity:0.635" fill="#f8fef2" d="M 635.5,171.5 C 631.715,172.978 627.715,174.145 623.5,175C 615.507,175.5 607.507,175.666 599.5,175.5C 597.156,175.06 595.156,174.06 593.5,172.5C 607.548,174.022 621.548,173.689 635.5,171.5 Z"/></g>
<g><path style="opacity:1" fill="#ecfdde" d="M 267.5,151.5 C 264.88,159.853 261.38,167.853 257,175.5C 254.03,185.901 252.197,196.568 251.5,207.5C 250.833,207.5 250.167,207.5 249.5,207.5C 249.91,200.126 250.744,192.793 252,185.5C 253.903,182.829 254.736,179.829 254.5,176.5C 255.341,174.621 255.675,172.621 255.5,170.5C 257.598,167.828 259.598,164.995 261.5,162C 262.233,160.234 262.567,158.401 262.5,156.5C 264.395,155.027 266.061,153.36 267.5,151.5 Z"/></g>
<g><path style="opacity:1" fill="#eefddf" d="M 1021.5,159.5 C 1021.33,166.192 1021.67,172.859 1022.5,179.5C 1022.53,183.993 1023.53,187.993 1025.5,191.5C 1025.5,191.833 1025.5,192.167 1025.5,192.5C 1025.05,196.104 1026.05,199.104 1028.5,201.5C 1028.77,206.127 1030.11,210.461 1032.5,214.5C 1030.93,214.063 1029.76,213.063 1029,211.5C 1021.04,194.732 1018.54,177.398 1021.5,159.5 Z"/></g>
<g><path style="opacity:0.969" fill="#f6fdeb" d="M 1025.5,192.5 C 1027.07,195.215 1028.07,198.215 1028.5,201.5C 1026.05,199.104 1025.05,196.104 1025.5,192.5 Z"/></g>
<g><path style="opacity:0.133" fill="#fbfff5" d="M 250.5,185.5 C 250.246,191.095 249.246,196.428 247.5,201.5C 247.754,195.905 248.754,190.572 250.5,185.5 Z"/></g>
<g><path style="opacity:0.944" fill="#f0fce4" d="M 252.5,176.5 C 253.167,176.5 253.833,176.5 254.5,176.5C 254.736,179.829 253.903,182.829 252,185.5C 250.744,192.793 249.91,200.126 249.5,207.5C 248.507,215.65 248.174,223.983 248.5,232.5C 248.616,235.86 248.949,239.193 249.5,242.5C 248.732,241.737 248.232,240.737 248,239.5C 247.5,226.838 247.333,214.171 247.5,201.5C 249.246,196.428 250.246,191.095 250.5,185.5C 251.167,182.5 251.833,179.5 252.5,176.5 Z"/></g>
<g><path style="opacity:1" fill="#ebfed9" d="M 249.5,207.5 C 250.167,207.5 250.833,207.5 251.5,207.5C 251.832,216.857 251.498,226.19 250.5,235.5C 249.824,234.398 249.158,233.398 248.5,232.5C 248.174,223.983 248.507,215.65 249.5,207.5 Z"/></g>
<g><path style="opacity:1" fill="#ebfedd" d="M 251.5,207.5 C 253.23,213.282 254.23,219.448 254.5,226C 253.916,230.501 253.249,235.001 252.5,239.5C 251.914,239.291 251.414,238.957 251,238.5C 250.771,241.735 250.604,244.735 250.5,247.5C 250.5,246.833 250.167,246.5 249.5,246.5C 249.5,245.167 249.5,243.833 249.5,242.5C 248.949,239.193 248.616,235.86 248.5,232.5C 249.158,233.398 249.824,234.398 250.5,235.5C 251.498,226.19 251.832,216.857 251.5,207.5 Z"/></g>
<g><path style="opacity:0.364" fill="#f9fef6" d="M 247.5,201.5 C 247.333,214.171 247.5,226.838 248,239.5C 248.232,240.737 248.732,241.737 249.5,242.5C 249.5,243.833 249.5,245.167 249.5,246.5C 249.5,249.5 249.5,252.5 249.5,255.5C 248.27,250.706 247.437,245.706 247,240.5C 246.173,227.327 246.34,214.327 247.5,201.5 Z"/></g>
<g><path style="opacity:0.956" fill="#f4fdeb" d="M 1028.5,201.5 C 1032.15,208.795 1035.81,216.128 1039.5,223.5C 1036.01,221.582 1033.68,218.582 1032.5,214.5C 1030.11,210.461 1028.77,206.127 1028.5,201.5 Z"/></g>
<g><path style="opacity:0.663" fill="#f9fef4" d="M 1039.5,223.5 C 1041.33,225.147 1042.66,227.147 1043.5,229.5C 1041.81,228.473 1040.47,227.139 1039.5,225.5C 1039.5,224.833 1039.5,224.167 1039.5,223.5 Z"/></g>
<g><path style="opacity:0.978" fill="#f3fde9" d="M 1039.5,225.5 C 1040.47,227.139 1041.81,228.473 1043.5,229.5C 1045.33,231.147 1046.66,233.147 1047.5,235.5C 1043.69,233.032 1041.03,229.698 1039.5,225.5 Z"/></g>
<g><path style="opacity:0.161" fill="#f6feef" d="M 1047.5,235.5 C 1050.52,238.52 1053.18,241.854 1055.5,245.5C 1053.94,245.267 1052.6,244.6 1051.5,243.5C 1048.86,241.518 1047.53,238.852 1047.5,235.5 Z"/></g>
<g><path style="opacity:0.125" fill="#f7fdef" d="M 1055.5,245.5 C 1056.8,247.142 1058.14,248.809 1059.5,250.5C 1056.7,250.033 1055.37,248.367 1055.5,245.5 Z"/></g>
<g><path style="opacity:1" fill="#ecfde0" d="M 1051.5,243.5 C 1052.6,244.6 1053.94,245.267 1055.5,245.5C 1055.37,248.367 1056.7,250.033 1059.5,250.5C 1059.5,252.167 1059.5,253.833 1059.5,255.5C 1057.87,254.375 1056.37,253.041 1055,251.5C 1053.28,249.065 1052.12,246.398 1051.5,243.5 Z"/></g>
<g><path style="opacity:1" fill="#eefde1" d="M 249.5,246.5 C 250.167,246.5 250.5,246.833 250.5,247.5C 250.337,249.857 250.503,252.19 251,254.5C 255.103,260.839 256.603,267.839 255.5,275.5C 255.5,276.833 255.5,278.167 255.5,279.5C 254.935,277.58 253.935,275.913 252.5,274.5C 252.5,273.5 252.5,272.5 252.5,271.5C 252.412,266.464 251.912,261.464 251,256.5C 250.617,255.944 250.117,255.611 249.5,255.5C 249.5,252.5 249.5,249.5 249.5,246.5 Z"/></g>
<g><path style="opacity:0.987" fill="#f3fdeb" d="M 1059.5,250.5 C 1063.88,255.545 1067.88,260.878 1071.5,266.5C 1067.28,263.031 1063.28,259.364 1059.5,255.5C 1059.5,253.833 1059.5,252.167 1059.5,250.5 Z"/></g>
<g><path style="opacity:0.739" fill="#f8fef0" d="M 249.5,255.5 C 250.117,255.611 250.617,255.944 251,256.5C 251.912,261.464 252.412,266.464 252.5,271.5C 250.871,266.409 249.871,261.076 249.5,255.5 Z"/></g>
<g><path style="opacity:1" fill="#ecfdde" d="M 1059.5,255.5 C 1063.28,259.364 1067.28,263.031 1071.5,266.5C 1071.89,268.284 1072.56,269.95 1073.5,271.5C 1071.51,270.063 1069.34,268.73 1067,267.5C 1066.67,267.833 1066.33,268.167 1066,268.5C 1066.03,263.89 1064.03,260.556 1060,258.5C 1059.52,257.552 1059.35,256.552 1059.5,255.5 Z"/></g>
<g><path style="opacity:1" fill="#ebfedd" d="M 255.5,275.5 C 256.434,276.568 256.768,277.901 256.5,279.5C 257.5,279.5 258.5,279.5 259.5,279.5C 261.2,289.207 262.866,298.54 264.5,307.5C 263.768,306.192 262.934,304.858 262,303.5C 261.386,298.242 260.219,293.242 258.5,288.5C 257.341,287.26 256.341,285.926 255.5,284.5C 255.5,282.833 255.5,281.167 255.5,279.5C 255.5,278.167 255.5,276.833 255.5,275.5 Z"/></g>
<g><path style="opacity:1" fill="#f3fde9" d="M 1071.5,266.5 C 1074.22,268.902 1076.72,271.568 1079,274.5C 1082.08,278.734 1084.92,283.067 1087.5,287.5C 1082.56,287.333 1080.06,284.666 1080,279.5C 1077.24,277.249 1075.07,274.582 1073.5,271.5C 1072.56,269.95 1071.89,268.284 1071.5,266.5 Z"/></g>
<g><path style="opacity:0.318" fill="#fbfff7" d="M 252.5,274.5 C 253.935,275.913 254.935,277.58 255.5,279.5C 255.5,281.167 255.5,282.833 255.5,284.5C 254.21,281.358 253.21,278.025 252.5,274.5 Z"/></g>
<g><path style="opacity:1" fill="#f3fdea" d="M 1087.5,287.5 C 1094.33,295.155 1099.67,303.821 1103.5,313.5C 1101.95,312.559 1100.28,311.893 1098.5,311.5C 1098.16,309.146 1097.66,306.813 1097,304.5C 1094.07,300.214 1091.07,295.881 1088,291.5C 1087.51,290.207 1087.34,288.873 1087.5,287.5 Z"/></g>
<g><path style="opacity:0.396" fill="#f7fef0" d="M 255.5,284.5 C 256.341,285.926 257.341,287.26 258.5,288.5C 258.942,292.154 259.276,295.821 259.5,299.5C 257.409,294.809 256.076,289.809 255.5,284.5 Z"/></g>
<g><path style="opacity:1" fill="#ecfddd" d="M 264.5,307.5 C 266.51,309.866 268.177,312.533 269.5,315.5C 268.456,320.116 269.289,324.449 272,328.5C 272.499,332.152 272.665,335.818 272.5,339.5C 270.998,333.162 269.332,326.829 267.5,320.5C 266.029,316.282 265.029,311.949 264.5,307.5 Z"/></g>
<g><path style="opacity:0.983" fill="#f2fde8" d="M 258.5,288.5 C 260.219,293.242 261.386,298.242 262,303.5C 262.934,304.858 263.768,306.192 264.5,307.5C 265.029,311.949 266.029,316.282 267.5,320.5C 266.167,318.833 264.833,317.167 263.5,315.5C 261.853,310.244 260.519,304.911 259.5,299.5C 259.276,295.821 258.942,292.154 258.5,288.5 Z"/></g>
<g><path style="opacity:1" fill="#ecfddd" d="M 1098.5,311.5 C 1100.28,311.893 1101.95,312.559 1103.5,313.5C 1105.29,320.861 1107.29,328.195 1109.5,335.5C 1106.63,327.263 1102.96,319.263 1098.5,311.5 Z"/></g>
<g><path style="opacity:0.881" fill="#f4fdeb" d="M 1103.5,313.5 C 1108.17,321.878 1111.51,330.878 1113.5,340.5C 1113.5,341.833 1113.5,343.167 1113.5,344.5C 1111.92,341.653 1110.59,338.653 1109.5,335.5C 1107.29,328.195 1105.29,320.861 1103.5,313.5 Z"/></g>
<g><path style="opacity:0.624" fill="#f7feef" d="M 263.5,315.5 C 264.833,317.167 266.167,318.833 267.5,320.5C 269.332,326.829 270.998,333.162 272.5,339.5C 272.5,340.833 272.5,342.167 272.5,343.5C 274.471,350.049 275.804,356.716 276.5,363.5C 272.502,347.516 268.169,331.516 263.5,315.5 Z"/></g>
<g><path style="opacity:0.518" fill="#f9fef2" d="M 1113.5,340.5 C 1114.92,342.515 1115.59,344.848 1115.5,347.5C 1114.83,346.5 1114.17,345.5 1113.5,344.5C 1113.5,343.167 1113.5,341.833 1113.5,340.5 Z"/></g>
<g><path style="opacity:0.428" fill="#f9fef2" d="M 1115.5,347.5 C 1117.26,352.231 1118.26,357.231 1118.5,362.5C 1116.12,357.894 1115.12,352.894 1115.5,347.5 Z"/></g>
<g><path style="opacity:1" fill="#eefce1" d="M 272.5,343.5 C 273.79,344.058 274.623,345.058 275,346.5C 275.608,350.405 276.775,354.072 278.5,357.5C 279.467,362.802 280.133,368.135 280.5,373.5C 279.833,373.5 279.167,373.5 278.5,373.5C 278.662,371.473 278.495,369.473 278,367.5C 277.617,366.944 277.117,366.611 276.5,366.5C 276.5,365.5 276.5,364.5 276.5,363.5C 275.804,356.716 274.471,350.049 272.5,343.5 Z"/></g>
<g><path style="opacity:0.994" fill="#f1fde6" d="M 1113.5,344.5 C 1114.17,345.5 1114.83,346.5 1115.5,347.5C 1115.12,352.894 1116.12,357.894 1118.5,362.5C 1119.47,364.607 1119.8,366.941 1119.5,369.5C 1119.5,371.167 1119.5,372.833 1119.5,374.5C 1119.17,374.5 1118.83,374.5 1118.5,374.5C 1116.24,364.629 1114.57,354.629 1113.5,344.5 Z"/></g>
<g><path style="opacity:0.455" fill="#fafff7" d="M 276.5,366.5 C 277.117,366.611 277.617,366.944 278,367.5C 278.495,369.473 278.662,371.473 278.5,373.5C 277.593,371.343 276.927,369.01 276.5,366.5 Z"/></g>
<g><path style="opacity:0.939" fill="#f6fdee" d="M 278.5,373.5 C 279.167,373.5 279.833,373.5 280.5,373.5C 280.5,374.5 280.5,375.5 280.5,376.5C 281.187,383.813 281.521,391.146 281.5,398.5C 280.242,390.338 279.242,382.005 278.5,373.5 Z"/></g>
<g><path style="opacity:0.027" fill="#fdfefb" d="M 1119.5,369.5 C 1120.71,376.639 1121.37,383.972 1121.5,391.5C 1120.83,388.833 1120.17,386.167 1119.5,383.5C 1119.5,380.5 1119.5,377.5 1119.5,374.5C 1119.5,372.833 1119.5,371.167 1119.5,369.5 Z"/></g>
<g><path style="opacity:0.999" fill="#edfddf" d="M 1118.5,374.5 C 1118.83,374.5 1119.17,374.5 1119.5,374.5C 1119.5,377.5 1119.5,380.5 1119.5,383.5C 1119.5,396.833 1119.5,410.167 1119.5,423.5C 1118.5,426.167 1117.5,428.833 1116.5,431.5C 1115.88,431.083 1115.54,430.416 1115.5,429.5C 1117.13,425.294 1118.13,420.96 1118.5,416.5C 1118.5,402.5 1118.5,388.5 1118.5,374.5 Z"/></g>
<g><path style="opacity:0.812" fill="#f7fcf0" d="M 1119.5,383.5 C 1120.17,386.167 1120.83,388.833 1121.5,391.5C 1121.76,402.376 1121.09,413.042 1119.5,423.5C 1119.5,410.167 1119.5,396.833 1119.5,383.5 Z"/></g>
<g><path style="opacity:0.89" fill="#f2fde6" d="M 280.5,376.5 C 284.076,391.874 285.076,407.54 283.5,423.5C 282.833,427.167 282.167,430.833 281.5,434.5C 281.5,431.167 281.5,427.833 281.5,424.5C 281.5,415.833 281.5,407.167 281.5,398.5C 281.521,391.146 281.187,383.813 280.5,376.5 Z"/></g>
<g><path style="opacity:1" fill="#ecfedc" d="M 1118.5,416.5 C 1118.13,420.96 1117.13,425.294 1115.5,429.5C 1115.54,430.416 1115.88,431.083 1116.5,431.5C 1116.5,432.167 1116.5,432.833 1116.5,433.5C 1115.27,437.994 1114.27,442.661 1113.5,447.5C 1112.83,448.5 1112.17,449.5 1111.5,450.5C 1111.5,449.5 1111.5,448.5 1111.5,447.5C 1110.17,447.5 1108.83,447.5 1107.5,447.5C 1105.94,442.687 1105.44,437.687 1106,432.5C 1106.41,432.043 1106.91,431.709 1107.5,431.5C 1108.56,435.784 1109.4,440.117 1110,444.5C 1110.67,445.167 1111.33,445.833 1112,446.5C 1113.88,440.894 1114.38,435.227 1113.5,429.5C 1114.94,424.967 1116.61,420.634 1118.5,416.5 Z"/></g>
<g><path style="opacity:1" fill="#ecfdde" d="M 283.5,423.5 C 283.249,426.909 283.583,430.242 284.5,433.5C 282.145,440.287 280.645,447.287 280,454.5C 278.309,457.033 276.809,459.7 275.5,462.5C 275.043,463.298 274.376,463.631 273.5,463.5C 275.142,457.564 277.309,451.897 280,446.5C 280.497,444.19 280.663,441.857 280.5,439.5C 280.216,437.585 280.549,435.919 281.5,434.5C 282.167,430.833 282.833,427.167 283.5,423.5 Z"/></g>
<g><path style="opacity:0.725" fill="#f7fef0" d="M 1119.5,423.5 C 1119.38,429.444 1118.38,435.11 1116.5,440.5C 1116.5,438.167 1116.5,435.833 1116.5,433.5C 1116.5,432.833 1116.5,432.167 1116.5,431.5C 1117.5,428.833 1118.5,426.167 1119.5,423.5 Z"/></g>
<g><path style="opacity:0.38" fill="#f2fde7" d="M 1116.5,433.5 C 1116.5,435.833 1116.5,438.167 1116.5,440.5C 1116.5,441.833 1116.5,443.167 1116.5,444.5C 1115.27,445.306 1114.27,446.306 1113.5,447.5C 1114.27,442.661 1115.27,437.994 1116.5,433.5 Z"/></g>
<g><path style="opacity:0.302" fill="#f9fff4" d="M 281.5,424.5 C 281.5,427.833 281.5,431.167 281.5,434.5C 280.549,435.919 280.216,437.585 280.5,439.5C 279.833,440.833 279.167,442.167 278.5,443.5C 279.402,437.018 280.402,430.684 281.5,424.5 Z"/></g>
<g><path style="opacity:0.712" fill="#f7fef2" d="M 1116.5,444.5 C 1114.97,450.311 1113.3,455.978 1111.5,461.5C 1111.85,456.784 1112.51,452.117 1113.5,447.5C 1114.27,446.306 1115.27,445.306 1116.5,444.5 Z"/></g>
<g><path style="opacity:1" fill="#edfddf" d="M 1113.5,447.5 C 1112.51,452.117 1111.85,456.784 1111.5,461.5C 1110.83,462.167 1110.17,462.833 1109.5,463.5C 1106.38,468.232 1105.05,473.565 1105.5,479.5C 1104.83,479.5 1104.17,479.5 1103.5,479.5C 1103.34,476.813 1103.5,474.146 1104,471.5C 1106.57,464.398 1109.07,457.398 1111.5,450.5C 1112.17,449.5 1112.83,448.5 1113.5,447.5 Z"/></g>
<g><path style="opacity:0.376" fill="#f8fef2" d="M 1111.5,461.5 C 1111.07,464.785 1110.07,467.785 1108.5,470.5C 1108.67,468.139 1109.01,465.806 1109.5,463.5C 1110.17,462.833 1110.83,462.167 1111.5,461.5 Z"/></g>
<g><path style="opacity:0.751" fill="#f3fde9" d="M 1109.5,463.5 C 1109.01,465.806 1108.67,468.139 1108.5,470.5C 1108.07,473.785 1107.07,476.785 1105.5,479.5C 1105.05,473.565 1106.38,468.232 1109.5,463.5 Z"/></g>
<g><path style="opacity:0.847" fill="#f6feee" d="M 280.5,439.5 C 280.663,441.857 280.497,444.19 280,446.5C 277.309,451.897 275.142,457.564 273.5,463.5C 272.366,466.37 271.7,469.37 271.5,472.5C 270.25,472.577 269.417,473.244 269,474.5C 268.227,479.995 266.394,484.995 263.5,489.5C 264.017,485.778 264.85,482.112 266,478.5C 270.894,466.979 275.06,455.312 278.5,443.5C 279.167,442.167 279.833,440.833 280.5,439.5 Z"/></g>
<g><path style="opacity:1" fill="#edfddf" d="M 271.5,472.5 C 270.288,476.426 269.288,480.426 268.5,484.5C 269.661,486.224 269.495,487.89 268,489.5C 267.333,488.167 266.667,488.167 266,489.5C 264.814,496.786 264.314,504.119 264.5,511.5C 264.167,511.5 263.833,511.5 263.5,511.5C 263.5,504.167 263.5,496.833 263.5,489.5C 266.394,484.995 268.227,479.995 269,474.5C 269.417,473.244 270.25,472.577 271.5,472.5 Z"/></g>
<g><path style="opacity:0.506" fill="#f9fdf8" d="M 1103.5,479.5 C 1104.17,479.5 1104.83,479.5 1105.5,479.5C 1105.2,481.403 1104.54,483.07 1103.5,484.5C 1103.5,482.833 1103.5,481.167 1103.5,479.5 Z"/></g>
<g><path style="opacity:1" fill="#eefddf" d="M 1103.5,479.5 C 1103.5,481.167 1103.5,482.833 1103.5,484.5C 1103.5,484.833 1103.5,485.167 1103.5,485.5C 1102.62,485.369 1101.96,485.702 1101.5,486.5C 1100.38,489.918 1098.71,492.918 1096.5,495.5C 1096.84,492.989 1096.84,490.655 1096.5,488.5C 1098.57,485.121 1100.9,482.121 1103.5,479.5 Z"/></g>
<g><path style="opacity:0.333" fill="#f6feef" d="M 1103.5,485.5 C 1099.68,494.48 1095.34,503.146 1090.5,511.5C 1089.9,507.113 1091.23,503.446 1094.5,500.5C 1095.45,498.955 1095.79,497.288 1095.5,495.5C 1095.83,495.5 1096.17,495.5 1096.5,495.5C 1098.71,492.918 1100.38,489.918 1101.5,486.5C 1101.96,485.702 1102.62,485.369 1103.5,485.5 Z"/></g>
<g><path style="opacity:1" fill="#edfcde" d="M 1095.5,495.5 C 1095.79,497.288 1095.45,498.955 1094.5,500.5C 1091.23,503.446 1089.9,507.113 1090.5,511.5C 1088.57,511.771 1087.24,512.771 1086.5,514.5C 1088.46,511.241 1089.63,507.574 1090,503.5C 1092.11,500.907 1093.95,498.24 1095.5,495.5 Z"/></g>
<g><path style="opacity:0.393" fill="#fbfef7" d="M 263.5,489.5 C 263.5,496.833 263.5,504.167 263.5,511.5C 260.927,504.173 260.927,496.84 263.5,489.5 Z"/></g>
<g><path style="opacity:0.818" fill="#f8fef0" d="M 263.5,511.5 C 263.833,511.5 264.167,511.5 264.5,511.5C 266.122,516.414 267.455,521.414 268.5,526.5C 265.464,522.052 263.798,517.052 263.5,511.5 Z"/></g>
<g><path style="opacity:0.859" fill="#f8fdf4" d="M 268.5,527.5 C 269.5,527.5 270.5,527.5 271.5,527.5C 271.5,528.833 271.5,530.167 271.5,531.5C 270.026,530.564 269.026,529.23 268.5,527.5 Z"/></g>
<g><path style="opacity:1" fill="#ecfdde" d="M 1079.5,525.5 C 1078.11,528.616 1076.44,531.616 1074.5,534.5C 1071.38,537.271 1068.72,540.271 1066.5,543.5C 1064.4,542.63 1064.07,541.297 1065.5,539.5C 1070.73,537.102 1073.9,533.102 1075,527.5C 1075.33,527.833 1075.67,528.167 1076,528.5C 1077.04,527.29 1078.21,526.29 1079.5,525.5 Z"/></g>
<g><path style="opacity:0.651" fill="#f4fdeb" d="M 1090.5,511.5 C 1082.36,526.624 1072.69,540.624 1061.5,553.5C 1061.5,553.167 1061.5,552.833 1061.5,552.5C 1063.57,549.755 1065.23,546.755 1066.5,543.5C 1068.72,540.271 1071.38,537.271 1074.5,534.5C 1076.44,531.616 1078.11,528.616 1079.5,525.5C 1081.05,521.348 1083.38,517.682 1086.5,514.5C 1087.24,512.771 1088.57,511.771 1090.5,511.5 Z"/></g>
<g><path style="opacity:1" fill="#ecfdde" d="M 264.5,511.5 C 265.583,511.539 266.583,511.873 267.5,512.5C 268.709,518.747 270.375,524.414 272.5,529.5C 274.39,529.297 275.89,529.963 277,531.5C 278.09,536.092 280.924,538.759 285.5,539.5C 286.03,542.682 287.03,545.682 288.5,548.5C 292.598,549.272 295.931,551.272 298.5,554.5C 295.043,552.378 291.377,550.711 287.5,549.5C 287.167,545.833 285.167,543.833 281.5,543.5C 281.579,542.07 281.246,540.736 280.5,539.5C 278.473,538.307 276.973,536.64 276,534.5C 274.67,533.418 273.17,532.751 271.5,532.5C 271.5,532.167 271.5,531.833 271.5,531.5C 271.5,530.167 271.5,528.833 271.5,527.5C 270.5,527.5 269.5,527.5 268.5,527.5C 268.5,527.167 268.5,526.833 268.5,526.5C 267.455,521.414 266.122,516.414 264.5,511.5 Z"/></g>
<g><path style="opacity:0.91" fill="#f4fdeb" d="M 271.5,532.5 C 273.17,532.751 274.67,533.418 276,534.5C 276.973,536.64 278.473,538.307 280.5,539.5C 281.246,540.736 281.579,542.07 281.5,543.5C 285.167,543.833 287.167,545.833 287.5,549.5C 291.377,550.711 295.043,552.378 298.5,554.5C 299.752,556.001 300.752,557.668 301.5,559.5C 289.005,553.341 279.005,544.341 271.5,532.5 Z"/></g>
<g><path style="opacity:0.925" fill="#f5fdec" d="M 1061.5,553.5 C 1060.92,555.749 1059.59,557.415 1057.5,558.5C 1057.5,557.167 1057.5,555.833 1057.5,554.5C 1058.96,554.567 1060.29,554.234 1061.5,553.5 Z"/></g>
<g><path style="opacity:0.984" fill="#f3fde8" d="M 1056.5,559.5 C 1052.2,565.135 1047.53,570.468 1042.5,575.5C 1041.5,575.5 1040.5,575.5 1039.5,575.5C 1039.5,574.833 1039.83,574.5 1040.5,574.5C 1044.19,570.805 1047.53,566.805 1050.5,562.5C 1052.24,560.962 1054.24,559.962 1056.5,559.5 Z"/></g>
<g><path style="opacity:1" fill="#ebfedd" d="M 298.5,554.5 C 301.111,554.646 303.111,555.812 304.5,558C 309.032,558.455 313.365,559.622 317.5,561.5C 321.526,560.031 325.692,559.031 330,558.5C 336.115,559.584 342.782,559.584 350,558.5C 350.692,559.025 351.192,559.692 351.5,560.5C 395.485,562.332 395.485,563.165 351.5,563C 342.69,561.876 333.856,561.043 325,560.5C 320.105,560.915 319.605,562.248 323.5,564.5C 324.842,563.098 325.676,563.431 326,565.5C 327.073,564.72 328.24,564.887 329.5,566C 335,566.5 340.5,567 346,567.5C 374.519,566.523 403.019,567.023 431.5,569C 444.734,572.45 458.067,575.783 471.5,579C 473.167,580 474.5,581.333 475.5,583C 478.754,583.25 481.754,584.25 484.5,586C 489.055,592.713 495.055,597.88 502.5,601.5C 504.152,607.473 507.319,612.473 512,616.5C 512.495,618.473 512.662,620.473 512.5,622.5C 511.833,622.5 511.5,622.167 511.5,621.5C 511.228,618.268 509.562,616.268 506.5,615.5C 506.5,615.167 506.5,614.833 506.5,614.5C 505.527,611.865 503.86,609.865 501.5,608.5C 501.143,606.411 500.477,604.411 499.5,602.5C 494.279,597.786 488.612,593.619 482.5,590C 481.257,588.846 480.257,587.512 479.5,586C 476.71,585.439 474.377,584.106 472.5,582C 463.554,578.574 454.554,575.574 445.5,573C 440.882,572.006 436.215,571.506 431.5,571.5C 422.211,570.013 412.711,569.346 403,569.5C 396.657,569.5 390.491,569.834 384.5,570.5C 383.833,570.5 383.5,570.833 383.5,571.5C 367.448,571.663 351.448,570.83 335.5,569C 323.944,566.31 312.611,563.144 301.5,559.5C 300.752,557.668 299.752,556.001 298.5,554.5 Z"/></g>
<g><path style="opacity:1" fill="#ecfddd" d="M 1061.5,552.5 C 1061.5,552.833 1061.5,553.167 1061.5,553.5C 1060.29,554.234 1058.96,554.567 1057.5,554.5C 1057.5,555.833 1057.5,557.167 1057.5,558.5C 1057.5,559.167 1057.17,559.5 1056.5,559.5C 1054.24,559.962 1052.24,560.962 1050.5,562.5C 1047.53,566.805 1044.19,570.805 1040.5,574.5C 1040.34,572.801 1040.51,571.134 1041,569.5C 1043.25,568.292 1045.42,566.959 1047.5,565.5C 1048.17,560.829 1050.84,558.162 1055.5,557.5C 1054.11,554.092 1054.27,550.759 1056,547.5C 1056.89,550.273 1058.73,551.94 1061.5,552.5 Z"/></g>
<g><path style="opacity:1" fill="#edfce2" d="M 384.5,570.5 C 390.491,569.834 396.657,569.5 403,569.5C 412.711,569.346 422.211,570.013 431.5,571.5C 427.833,571.5 424.167,571.5 420.5,571.5C 408.678,570.505 396.678,570.172 384.5,570.5 Z"/></g>
<g><path style="opacity:0.345" fill="#f7feee" d="M 301.5,559.5 C 312.611,563.144 323.944,566.31 335.5,569C 351.448,570.83 367.448,571.663 383.5,571.5C 385.415,571.216 387.081,571.549 388.5,572.5C 366.303,573.563 344.303,572.063 322.5,568C 315.039,566.02 308.039,563.187 301.5,559.5 Z"/></g>
<g><path style="opacity:0.715" fill="#f3feea" d="M 383.5,571.5 C 383.5,570.833 383.833,570.5 384.5,570.5C 396.678,570.172 408.678,570.505 420.5,571.5C 410.652,571.173 400.986,571.506 391.5,572.5C 390.5,572.5 389.5,572.5 388.5,572.5C 387.081,571.549 385.415,571.216 383.5,571.5 Z"/></g>
<g><path style="opacity:0.502" fill="#fbfef8" d="M 429.5,572.5 C 432.187,572.336 434.854,572.503 437.5,573C 438.416,573.278 439.082,573.778 439.5,574.5C 435.96,574.247 432.627,573.581 429.5,572.5 Z"/></g>
<g><path style="opacity:0.639" fill="#fafcf6" d="M 1039.5,575.5 C 1040.5,575.5 1041.5,575.5 1042.5,575.5C 1041.83,576.833 1040.83,577.833 1039.5,578.5C 1039.5,577.833 1039.5,577.167 1039.5,576.5C 1039.5,576.167 1039.5,575.833 1039.5,575.5 Z"/></g>
<g><path style="opacity:1" fill="#ecfdde" d="M 1032.5,581.5 C 1031.93,584.335 1030.26,586.001 1027.5,586.5C 1027.5,587.833 1027.5,589.167 1027.5,590.5C 1026.17,590.5 1024.83,590.5 1023.5,590.5C 1023.38,588.516 1024.05,586.85 1025.5,585.5C 1028.02,584.408 1030.36,583.074 1032.5,581.5 Z"/></g>
<g><path style="opacity:0.58" fill="#f5fde9" d="M 1039.5,576.5 C 1039.5,577.167 1039.5,577.833 1039.5,578.5C 1035.83,582.833 1031.83,586.833 1027.5,590.5C 1027.5,589.167 1027.5,587.833 1027.5,586.5C 1030.26,586.001 1031.93,584.335 1032.5,581.5C 1034.66,579.588 1036.99,577.921 1039.5,576.5 Z"/></g>
<g><path style="opacity:0.878" fill="#f6fdef" d="M 1023.5,590.5 C 1024.83,590.5 1026.17,590.5 1027.5,590.5C 1026.56,591.974 1025.23,592.974 1023.5,593.5C 1023.5,592.5 1023.5,591.5 1023.5,590.5 Z"/></g>
<g><path style="opacity:0.947" fill="#f5fded" d="M 391.5,572.5 C 400.986,571.506 410.652,571.173 420.5,571.5C 424.167,571.5 427.833,571.5 431.5,571.5C 436.215,571.506 440.882,572.006 445.5,573C 454.554,575.574 463.554,578.574 472.5,582C 474.377,584.106 476.71,585.439 479.5,586C 480.257,587.512 481.257,588.846 482.5,590C 488.612,593.619 494.279,597.786 499.5,602.5C 500.477,604.411 501.143,606.411 501.5,608.5C 484.869,589.85 464.202,578.517 439.5,574.5C 439.082,573.778 438.416,573.278 437.5,573C 434.854,572.503 432.187,572.336 429.5,572.5C 416.833,572.5 404.167,572.5 391.5,572.5 Z"/></g>
<g><path style="opacity:0.663" fill="#f5fded" d="M 1022.5,594.5 C 1017.82,599.178 1012.82,603.511 1007.5,607.5C 1007.35,606.448 1007.52,605.448 1008,604.5C 1010.41,603.589 1011.91,601.922 1012.5,599.5C 1014.31,598.37 1016.31,597.704 1018.5,597.5C 1018.5,596.5 1018.5,595.5 1018.5,594.5C 1019.83,594.5 1021.17,594.5 1022.5,594.5 Z"/></g>
<g><path style="opacity:1" fill="#ecfddd" d="M 1012.5,599.5 C 1011.91,601.922 1010.41,603.589 1008,604.5C 1007.52,605.448 1007.35,606.448 1007.5,607.5C 1006.13,607.343 1004.79,607.51 1003.5,608C 1000.89,610.123 998.554,612.456 996.5,615C 995.552,615.483 994.552,615.649 993.5,615.5C 995.934,612.562 998.601,609.729 1001.5,607C 1003.13,606.506 1004.8,606.34 1006.5,606.5C 1007.34,603.312 1009.34,600.979 1012.5,599.5 Z"/></g>
<g><path style="opacity:0.573" fill="#f7feee" d="M 501.5,608.5 C 503.86,609.865 505.527,611.865 506.5,614.5C 504.11,613.109 502.443,611.109 501.5,608.5 Z"/></g>
<g><path style="opacity:0.455" fill="#f8feef" d="M 506.5,615.5 C 509.562,616.268 511.228,618.268 511.5,621.5C 509.844,619.54 508.177,617.54 506.5,615.5 Z"/></g>
<g><path style="opacity:0.871" fill="#f4fdeb" d="M 1007.5,607.5 C 989.257,622.629 969.924,636.296 949.5,648.5C 949.5,647.833 949.5,647.167 949.5,646.5C 961.496,638.392 973.496,629.892 985.5,621C 987.436,620.187 989.436,619.687 991.5,619.5C 991.527,617.801 992.194,616.467 993.5,615.5C 994.552,615.649 995.552,615.483 996.5,615C 998.554,612.456 1000.89,610.123 1003.5,608C 1004.79,607.51 1006.13,607.343 1007.5,607.5 Z"/></g>
<g><path style="opacity:1" fill="#f1fce6" d="M 512.5,623.5 C 514.903,623.393 516.736,624.393 518,626.5C 519.459,628.432 520.625,630.432 521.5,632.5C 521.5,633.167 521.5,633.833 521.5,634.5C 520.833,634.5 520.167,634.5 519.5,634.5C 519.5,634.167 519.5,633.833 519.5,633.5C 519.446,631.368 518.446,630.035 516.5,629.5C 515.167,627.5 513.833,625.5 512.5,623.5 Z"/></g>
<g><path style="opacity:0.631" fill="#fafff7" d="M 516.5,629.5 C 518.446,630.035 519.446,631.368 519.5,633.5C 518.026,632.564 517.026,631.23 516.5,629.5 Z"/></g>
<g><path style="opacity:1" fill="#edfcdf" d="M 521.5,632.5 C 524.518,633.855 525.851,636.188 525.5,639.5C 525.167,639.5 524.833,639.5 524.5,639.5C 523.263,638.035 522.263,636.368 521.5,634.5C 521.5,633.833 521.5,633.167 521.5,632.5 Z"/></g>
<g><path style="opacity:0.227" fill="#f9fef4" d="M 519.5,634.5 C 520.167,634.5 520.833,634.5 521.5,634.5C 522.263,636.368 523.263,638.035 524.5,639.5C 524.5,640.5 524.5,641.5 524.5,642.5C 522.847,639.869 521.181,637.203 519.5,634.5 Z"/></g>
<g><path style="opacity:0.929" fill="#f3fde9" d="M 524.5,639.5 C 524.833,639.5 525.167,639.5 525.5,639.5C 531.02,649.931 536.687,660.264 542.5,670.5C 542.5,670.833 542.5,671.167 542.5,671.5C 541.833,671.5 541.167,671.5 540.5,671.5C 535.167,661.833 529.833,652.167 524.5,642.5C 524.5,641.5 524.5,640.5 524.5,639.5 Z"/></g>
<g><path style="opacity:1" fill="#ecfddd" d="M 525.5,639.5 C 526.833,639.5 528.167,639.5 529.5,639.5C 529.298,641.989 529.798,644.323 531,646.5C 534.064,651.246 536.73,656.246 539,661.5C 539.333,661.167 539.667,660.833 540,660.5C 540.78,663.512 541.947,666.345 543.5,669C 542.944,669.383 542.611,669.883 542.5,670.5C 536.687,660.264 531.02,649.931 525.5,639.5 Z"/></g>
<g><path style="opacity:0.541" fill="#f6fdf2" d="M 948.5,648.5 C 947.101,649.89 945.434,650.89 943.5,651.5C 944.048,648.916 945.715,647.916 948.5,648.5 Z"/></g>
<g><path style="opacity:1" fill="#ebfedd" d="M 939.5,650.5 C 937.5,652.167 935.5,653.833 933.5,655.5C 930.865,656.473 928.865,658.14 927.5,660.5C 924.784,660.678 922.117,661.178 919.5,662C 917.963,663.11 917.297,664.61 917.5,666.5C 915.379,666.325 913.379,666.659 911.5,667.5C 910.784,667.217 909.951,666.884 909,666.5C 908.55,669.106 907.05,670.439 904.5,670.5C 905.048,667.614 906.715,665.614 909.5,664.5C 911.322,664.463 913.322,664.796 915.5,665.5C 915.238,664.022 915.571,662.689 916.5,661.5C 919.276,660.911 921.61,659.578 923.5,657.5C 923.291,656.914 922.957,656.414 922.5,656C 928.156,654.232 933.823,652.399 939.5,650.5 Z"/></g>
<g><path style="opacity:0.071" fill="#fafef2" d="M 943.5,651.5 C 941.795,653.192 939.795,654.525 937.5,655.5C 938.663,653.018 940.663,651.684 943.5,651.5 Z"/></g>
<g><path style="opacity:0.933" fill="#effde4" d="M 949.5,646.5 C 949.5,647.167 949.5,647.833 949.5,648.5C 949.167,648.5 948.833,648.5 948.5,648.5C 945.715,647.916 944.048,648.916 943.5,651.5C 940.663,651.684 938.663,653.018 937.5,655.5C 937.167,655.5 936.833,655.5 936.5,655.5C 935.5,655.5 934.5,655.5 933.5,655.5C 935.5,653.833 937.5,652.167 939.5,650.5C 942.43,648.262 945.763,646.929 949.5,646.5 Z"/></g>
<g><path style="opacity:0.741" fill="#f5feed" d="M 933.5,655.5 C 934.5,655.5 935.5,655.5 936.5,655.5C 933.992,657.924 930.992,659.59 927.5,660.5C 928.865,658.14 930.865,656.473 933.5,655.5 Z"/></g>
<g><path style="opacity:0.969" fill="#f2fde9" d="M 927.5,660.5 C 924.506,663 921.173,665 917.5,666.5C 917.297,664.61 917.963,663.11 919.5,662C 922.117,661.178 924.784,660.678 927.5,660.5 Z"/></g>
<g><path style="opacity:0.79" fill="#f5fdee" d="M 917.5,666.5 C 915.819,668.008 913.819,669.008 911.5,669.5C 911.5,668.833 911.5,668.167 911.5,667.5C 913.379,666.659 915.379,666.325 917.5,666.5 Z"/></g>
<g><path style="opacity:0.863" fill="#f2fee6" d="M 911.5,667.5 C 911.5,668.167 911.5,668.833 911.5,669.5C 908.028,671.738 904.362,673.738 900.5,675.5C 899.167,675.5 897.833,675.5 896.5,675.5C 898.781,674.661 901.115,673.661 903.5,672.5C 904.298,672.043 904.631,671.376 904.5,670.5C 907.05,670.439 908.55,669.106 909,666.5C 909.951,666.884 910.784,667.217 911.5,667.5 Z"/></g>
<g><path style="opacity:0.676" fill="#f8fcf2" d="M 540.5,671.5 C 541.167,671.5 541.833,671.5 542.5,671.5C 543.338,671.842 543.672,672.508 543.5,673.5C 543.5,674.167 543.5,674.833 543.5,675.5C 542.026,674.564 541.026,673.23 540.5,671.5 Z"/></g>
<g><path style="opacity:0.388" fill="#f7fef4" d="M 544.5,678.5 C 547.292,679.392 548.625,681.392 548.5,684.5C 547.18,682.537 545.846,680.537 544.5,678.5 Z"/></g>
<g><path style="opacity:0.125" fill="#f8fef2" d="M 896.5,675.5 C 897.833,675.5 899.167,675.5 900.5,675.5C 895.693,678.405 890.693,681.072 885.5,683.5C 887.775,681.024 890.442,679.024 893.5,677.5C 894.778,677.218 895.778,676.551 896.5,675.5 Z"/></g>
<g><path style="opacity:1" fill="#ecfddd" d="M 557.5,693.5 C 553.604,688.726 550.437,683.392 548,677.5C 546.855,676.364 545.688,675.364 544.5,674.5C 545.939,673.491 547.272,673.824 548.5,675.5C 552.402,681.063 555.402,687.063 557.5,693.5 Z"/></g>
<g><path style="opacity:1" fill="#edfde1" d="M 893.5,677.5 C 890.442,679.024 887.775,681.024 885.5,683.5C 885.167,683.5 884.833,683.5 884.5,683.5C 881.715,682.916 880.048,683.916 879.5,686.5C 878.391,686.557 877.391,686.89 876.5,687.5C 873.607,687.031 871.607,688.031 870.5,690.5C 870.167,690.5 869.833,690.5 869.5,690.5C 868.833,690.5 868.167,690.5 867.5,690.5C 870.812,687.188 874.146,683.854 877.5,680.5C 881.153,682.641 884.487,681.974 887.5,678.5C 889.396,677.534 891.396,677.201 893.5,677.5 Z"/></g>
<g><path style="opacity:0.106" fill="#f8fef6" d="M 884.5,683.5 C 883.035,684.737 881.368,685.737 879.5,686.5C 880.048,683.916 881.715,682.916 884.5,683.5 Z"/></g>
<g><path style="opacity:0.365" fill="#fafeed" d="M 876.5,687.5 C 874.574,688.486 872.574,689.486 870.5,690.5C 871.607,688.031 873.607,687.031 876.5,687.5 Z"/></g>
<g><path style="opacity:0.251" fill="#f5feee" d="M 867.5,690.5 C 868.167,690.5 868.833,690.5 869.5,690.5C 866.696,692.405 863.696,694.071 860.5,695.5C 860.782,694.222 861.449,693.222 862.5,692.5C 863.78,691.069 865.447,690.402 867.5,690.5 Z"/></g>
<g><path style="opacity:0.982" fill="#f2fde9" d="M 543.5,673.5 C 544.167,673.5 544.5,673.833 544.5,674.5C 545.688,675.364 546.855,676.364 548,677.5C 550.437,683.392 553.604,688.726 557.5,693.5C 557.5,694.167 557.5,694.833 557.5,695.5C 558.73,697.297 559.396,699.297 559.5,701.5C 555.473,696.125 551.807,690.459 548.5,684.5C 548.625,681.392 547.292,679.392 544.5,678.5C 543.89,677.609 543.557,676.609 543.5,675.5C 543.5,674.833 543.5,674.167 543.5,673.5 Z"/></g>
<g><path style="opacity:0.967" fill="#f0fde3" d="M 862.5,692.5 C 861.449,693.222 860.782,694.222 860.5,695.5C 860.167,695.5 859.833,695.5 859.5,695.5C 857.5,695.833 855.5,696.167 853.5,696.5C 855.712,693.642 858.712,692.309 862.5,692.5 Z"/></g>
<g><path style="opacity:0.996" fill="#effde5" d="M 557.5,695.5 C 558.778,695.782 559.778,696.449 560.5,697.5C 561.037,700.036 562.37,702.036 564.5,703.5C 563.5,703.5 562.5,703.5 561.5,703.5C 560.5,703.167 559.833,702.5 559.5,701.5C 559.396,699.297 558.73,697.297 557.5,695.5 Z"/></g>
<g><path style="opacity:0.949" fill="#f6fdf0" d="M 561.5,703.5 C 562.5,703.5 563.5,703.5 564.5,703.5C 564.392,705.514 565.058,707.18 566.5,708.5C 567.11,709.391 567.443,710.391 567.5,711.5C 565.016,709.2 563.016,706.533 561.5,703.5 Z"/></g>
<g><path style="opacity:0.931" fill="#f4fdeb" d="M 859.5,695.5 C 840.465,705.016 821.132,714.016 801.5,722.5C 801.833,721.833 802.167,721.167 802.5,720.5C 815.633,714.103 828.966,707.936 842.5,702C 843.701,701.097 844.535,699.931 845,698.5C 845.333,698.833 845.667,699.167 846,699.5C 848.628,698.723 851.128,697.723 853.5,696.5C 855.5,696.167 857.5,695.833 859.5,695.5 Z"/></g>
<g><path style="opacity:0.82" fill="#f4fded" d="M 566.5,708.5 C 569.242,709.938 571.576,711.938 573.5,714.5C 574.244,715.991 574.91,717.491 575.5,719C 577.421,719.36 579.088,720.194 580.5,721.5C 582.038,724.05 583.704,726.383 585.5,728.5C 581.728,725.906 578.061,723.073 574.5,720C 571.8,717.412 569.467,714.579 567.5,711.5C 567.443,710.391 567.11,709.391 566.5,708.5 Z"/></g>
<g><path style="opacity:1" fill="#ecfdde" d="M 600.5,735.5 C 597.016,734.531 594.183,732.531 592,729.5C 591.617,730.056 591.117,730.389 590.5,730.5C 588.833,729.833 587.167,729.167 585.5,728.5C 583.704,726.383 582.038,724.05 580.5,721.5C 579.088,720.194 577.421,719.36 575.5,719C 574.91,717.491 574.244,715.991 573.5,714.5C 571.576,711.938 569.242,709.938 566.5,708.5C 565.058,707.18 564.392,705.514 564.5,703.5C 562.37,702.036 561.037,700.036 560.5,697.5C 563.146,696.773 565.479,697.606 567.5,700C 566.424,701.726 566.257,703.559 567,705.5C 570.027,708.527 573.027,711.527 576,714.5C 576.49,715.793 576.657,717.127 576.5,718.5C 577.873,718.343 579.207,718.51 580.5,719C 583.694,721.772 586.694,724.772 589.5,728C 594.384,728.718 598.051,731.218 600.5,735.5 Z"/></g>
<g><path style="opacity:0.557" fill="#f7fef2" d="M 801.5,722.5 C 798.912,724.625 795.912,725.958 792.5,726.5C 794.835,723.835 797.835,722.502 801.5,722.5 Z"/></g>
<g><path style="opacity:0.769" fill="#f6fef0" d="M 792.5,726.5 C 789.912,728.592 786.912,729.925 783.5,730.5C 783.414,729.504 783.748,728.671 784.5,728C 787.168,727.433 789.834,726.933 792.5,726.5 Z"/></g>
<g><path style="opacity:0.503" fill="#f9fef2" d="M 783.5,730.5 C 780.744,732.204 777.744,733.537 774.5,734.5C 776.835,731.835 779.835,730.502 783.5,730.5 Z"/></g>
<g><path style="opacity:0.094" fill="#f7fef1" d="M 585.5,728.5 C 587.167,729.167 588.833,729.833 590.5,730.5C 591.11,731.391 591.443,732.391 591.5,733.5C 589.091,732.299 587.091,730.633 585.5,728.5 Z"/></g>
<g><path style="opacity:0.994" fill="#f3fdea" d="M 600.5,735.5 C 604.346,739.024 608.68,741.691 613.5,743.5C 615.349,744.593 617.016,745.926 618.5,747.5C 608.738,744.12 599.738,739.454 591.5,733.5C 591.443,732.391 591.11,731.391 590.5,730.5C 591.117,730.389 591.617,730.056 592,729.5C 594.183,732.531 597.016,734.531 600.5,735.5 Z"/></g>
<g><path style="opacity:1" fill="#edfddf" d="M 802.5,720.5 C 802.167,721.167 801.833,721.833 801.5,722.5C 797.835,722.502 794.835,723.835 792.5,726.5C 789.834,726.933 787.168,727.433 784.5,728C 783.748,728.671 783.414,729.504 783.5,730.5C 779.835,730.502 776.835,731.835 774.5,734.5C 773.609,735.11 772.609,735.443 771.5,735.5C 764.78,737.295 758.113,739.295 751.5,741.5C 751.5,740.5 751.5,739.5 751.5,738.5C 760.126,736.847 768.126,733.68 775.5,729C 783.235,728.199 790.068,725.366 796,720.5C 798.12,721.605 800.287,721.605 802.5,720.5 Z"/></g>
<g><path style="opacity:0.667" fill="#f7fef1" d="M 771.5,735.5 C 765.122,738.682 758.455,741.349 751.5,743.5C 751.5,743.167 751.5,742.833 751.5,742.5C 751.5,742.167 751.5,741.833 751.5,741.5C 758.113,739.295 764.78,737.295 771.5,735.5 Z"/></g>
<g><path style="opacity:0.976" fill="#f1fce6" d="M 751.5,742.5 C 751.5,742.833 751.5,743.167 751.5,743.5C 751.167,743.5 750.833,743.5 750.5,743.5C 747.772,743.171 745.438,743.837 743.5,745.5C 742.432,746.434 741.099,746.768 739.5,746.5C 738.167,746.5 736.833,746.5 735.5,746.5C 740.307,743.452 745.64,742.118 751.5,742.5 Z"/></g>
<g><path style="opacity:0.082" fill="#fbfef5" d="M 750.5,743.5 C 748.401,744.612 746.067,745.279 743.5,745.5C 745.438,743.837 747.772,743.171 750.5,743.5 Z"/></g>
<g><path style="opacity:0.991" fill="#eefddf" d="M 613.5,743.5 C 619.343,745.46 625.343,746.794 631.5,747.5C 631.5,748.5 631.5,749.5 631.5,750.5C 636.511,750.334 641.511,750.501 646.5,751C 647.858,751.934 649.192,752.768 650.5,753.5C 646.454,753.048 642.454,752.381 638.5,751.5C 636.167,751.5 633.833,751.5 631.5,751.5C 631.167,751.5 630.833,751.5 630.5,751.5C 627.645,748.433 624.311,747.433 620.5,748.5C 619.833,748.167 619.167,747.833 618.5,747.5C 617.016,745.926 615.349,744.593 613.5,743.5 Z"/></g>
<g><path style="opacity:0.829" fill="#f4feef" d="M 620.5,748.5 C 624.311,747.433 627.645,748.433 630.5,751.5C 627.167,750.5 623.833,749.5 620.5,748.5 Z"/></g>
<g><path style="opacity:0.999" fill="#ecfddd" d="M 751.5,741.5 C 751.5,741.833 751.5,742.167 751.5,742.5C 745.64,742.118 740.307,743.452 735.5,746.5C 730.312,746.863 725.312,748.196 720.5,750.5C 712.841,751.632 705.175,752.632 697.5,753.5C 699.389,752.678 701.389,751.845 703.5,751C 708.5,750.667 713.5,750.333 718.5,750C 720.609,748.859 722.442,747.359 724,745.5C 724.414,745.957 724.914,746.291 725.5,746.5C 733.928,743.579 742.594,741.913 751.5,741.5 Z"/></g>
<g><path style="opacity:0.306" fill="#fafef4" d="M 631.5,751.5 C 633.833,751.5 636.167,751.5 638.5,751.5C 638.833,752.167 639.167,752.833 639.5,753.5C 636.572,753.435 633.905,752.768 631.5,751.5 Z"/></g>
<g><path style="opacity:0.426" fill="#fafff6" d="M 717.5,752.5 C 715.343,753.407 713.01,754.073 710.5,754.5C 710.611,753.883 710.944,753.383 711.5,753C 713.473,752.505 715.473,752.338 717.5,752.5 Z"/></g>
<g><path style="opacity:0.96" fill="#f3fdea" d="M 735.5,746.5 C 736.833,746.5 738.167,746.5 739.5,746.5C 732.507,749.372 725.173,751.372 717.5,752.5C 715.473,752.338 713.473,752.505 711.5,753C 710.944,753.383 710.611,753.883 710.5,754.5C 708.833,754.5 707.167,754.5 705.5,754.5C 703.143,754.337 700.81,754.503 698.5,755C 697.944,755.383 697.611,755.883 697.5,756.5C 677.866,758.454 658.533,757.454 639.5,753.5C 639.167,752.833 638.833,752.167 638.5,751.5C 642.454,752.381 646.454,753.048 650.5,753.5C 651.167,753.5 651.833,753.5 652.5,753.5C 659.524,754.215 666.69,754.882 674,755.5C 681.577,755.507 689.41,754.84 697.5,753.5C 705.175,752.632 712.841,751.632 720.5,750.5C 725.312,748.196 730.312,746.863 735.5,746.5 Z"/></g>
<g><path style="opacity:1" fill="#ecfddd" d="M 697.5,753.5 C 689.41,754.84 681.577,755.507 674,755.5C 666.69,754.882 659.524,754.215 652.5,753.5C 667.62,753.429 682.62,753.429 697.5,753.5 Z"/></g>
<g><path style="opacity:0.227" fill="#f7fef3" d="M 705.5,754.5 C 703.039,755.531 700.373,756.198 697.5,756.5C 697.611,755.883 697.944,755.383 698.5,755C 700.81,754.503 703.143,754.337 705.5,754.5 Z"/></g>
</svg>
